<svg width="602" height="330" viewBox="0 0 602 330" fill="none" xmlns="http://www.w3.org/2000/svg">
<path d="M340.484 300.747C341.471 299.834 342.579 299.341 343.709 299.31C344.84 299.28 345.957 299.714 346.961 300.573C347.964 301.432 348.823 302.69 349.459 304.233C350.095 305.776 350.489 307.556 350.605 309.412C346.47 309.412 342.417 307.824 340.484 300.747Z" fill="#EBEBEB" fill-opacity="0.8"/>
<path d="M345.297 293.751C346.687 294.504 348.169 294.675 349.61 294.248C351.05 293.82 352.404 292.808 353.548 291.302C354.692 289.796 355.592 287.844 356.166 285.622C356.739 283.399 356.969 280.976 356.834 278.57C351.581 280.274 346.652 283.977 345.297 293.751Z" fill="#EBEBEB" fill-opacity="0.8"/>
<path d="M327.293 305.303C327.376 305.234 327.462 305.178 327.551 305.134L328.308 304.715C328.963 304.364 329.913 303.85 331.08 303.181C333.418 301.829 336.624 299.909 340.087 297.429C341.811 296.178 343.432 294.908 344.89 293.691C346.347 292.475 347.621 291.271 348.677 290.21C349.509 289.385 350.311 288.483 351.08 287.507C351.621 286.831 351.899 286.351 351.899 286.378C351.846 286.502 351.784 286.615 351.715 286.716C351.53 287.033 351.335 287.333 351.129 287.615C350.376 288.646 349.581 289.592 348.751 290.447C347.707 291.542 346.425 292.745 344.976 294.002C343.527 295.259 341.897 296.523 340.165 297.78C336.706 300.268 333.483 302.174 331.133 303.444C329.958 304.086 329 304.56 328.337 304.87L327.571 305.229C327.481 305.273 327.387 305.298 327.293 305.303Z" fill="#E0E0E0"/>
<path d="M345.803 304.72C345.803 304.775 345.304 304.22 344.481 303.484C343.406 302.532 342.27 301.779 341.095 301.24C339.916 300.711 338.704 300.405 337.484 300.327C336.55 300.266 335.965 300.327 335.965 300.273C336.098 300.209 336.236 300.172 336.374 300.165C336.745 300.1 337.119 300.07 337.492 300.077C339.977 300.095 342.414 301.196 344.559 303.267C344.882 303.577 345.193 303.917 345.492 304.288C345.608 304.406 345.713 304.552 345.803 304.72Z" fill="#E0E0E0"/>
<path d="M248.251 274.332C247.75 276.535 247.589 278.909 247.782 281.24C247.976 283.571 248.517 285.787 249.357 287.687C250.198 289.587 251.311 291.113 252.597 292.127C253.884 293.14 255.302 293.61 256.726 293.494C255.94 284.991 253.958 276.907 248.251 274.332Z" fill="#EBEBEB" fill-opacity="0.8"/>
<path d="M247.442 270.156C247.475 270.156 247.614 271.089 247.913 272.569C248.301 274.499 248.787 276.371 249.366 278.166C249.953 279.953 250.628 281.658 251.385 283.262C251.97 284.492 252.367 285.208 252.343 285.249C252.228 285.121 252.123 284.969 252.032 284.796C251.839 284.485 251.577 284.019 251.27 283.444C249.66 280.297 248.467 276.626 247.769 272.671C247.638 271.914 247.544 271.319 247.499 270.859C247.457 270.632 247.438 270.394 247.442 270.156Z" fill="#E0E0E0"/>
<path d="M166.433 103.779C165.656 107.195 165.405 110.876 165.705 114.491C166.004 118.107 166.844 121.542 168.148 124.488C169.452 127.433 171.18 129.797 173.176 131.365C175.172 132.934 177.372 133.657 179.58 133.471C178.351 120.291 175.293 107.787 166.45 103.779" fill="#EBEBEB" fill-opacity="0.8"/>
<path d="M165.18 97.3164C165.263 97.6414 165.327 97.9785 165.372 98.3235C165.479 98.9994 165.646 99.9186 165.872 101.074C166.466 104.073 167.216 106.982 168.115 109.766C169.021 112.549 170.073 115.195 171.26 117.674C171.718 118.621 172.078 119.378 172.369 119.884C172.517 120.14 172.654 120.414 172.779 120.702C172.61 120.485 172.454 120.243 172.312 119.979C172.021 119.492 171.62 118.762 171.149 117.83C168.677 112.936 166.834 107.263 165.732 101.155C165.524 99.9929 165.376 99.0332 165.294 98.3708C165.241 98.0242 165.203 97.6719 165.18 97.3164Z" fill="#E0E0E0"/>
<path d="M180.267 238.309C179.156 239.784 178.285 241.693 177.732 243.863C177.179 246.032 176.961 248.395 177.099 250.738C177.236 253.081 177.725 255.331 178.52 257.285C179.316 259.239 180.393 260.835 181.655 261.931C183.6 253.949 184.386 245.331 180.267 238.309Z" fill="#EBEBEB" fill-opacity="0.8"/>
<path d="M180.856 234.035C180.888 234.035 180.721 234.988 180.52 236.509C179.99 240.49 179.886 244.594 180.213 248.634C180.336 250.182 180.459 251.135 180.422 251.149C180.363 250.933 180.32 250.706 180.295 250.473C180.225 250.047 180.143 249.425 180.061 248.655C179.651 244.59 179.757 240.428 180.373 236.435C180.491 235.671 180.606 235.083 180.696 234.65C180.735 234.436 180.788 234.229 180.856 234.035Z" fill="#E0E0E0"/>
<path d="M256.246 67.4009C257.522 68.4498 258.936 68.9585 260.361 68.8811C261.786 68.8036 263.177 68.1426 264.408 66.9575C265.64 65.7723 266.673 64.1002 267.416 62.0917C268.159 60.0831 268.588 57.8012 268.664 55.4512C263.456 55.8635 258.387 58.2899 256.246 67.4009Z" fill="#EBEBEB" fill-opacity="0.8"/>
<path d="M253.648 68.3339C253.648 68.2798 254.23 68.1446 255.151 67.8067C257.563 66.9367 259.864 65.3791 261.952 63.2039C262.77 62.3657 263.225 61.7912 263.245 61.8521C263.159 62.0311 263.057 62.1882 262.942 62.3184C262.738 62.6023 262.426 62.9943 262.033 63.4269C259.971 65.745 257.638 67.3266 255.184 68.0703C254.713 68.2122 254.332 68.2933 254.066 68.3339C253.927 68.3648 253.787 68.3648 253.648 68.3339Z" fill="#E0E0E0"/>
<path d="M245.633 66.1783C247.471 65.527 249.182 64.1314 250.612 62.117C252.042 60.1027 253.146 57.5329 253.825 54.6389C254.504 51.7449 254.736 48.6176 254.501 45.5385C254.266 42.4594 253.571 39.5252 252.478 37C247.319 44.4956 243.299 53.8973 245.633 66.1783Z" fill="#EBEBEB" fill-opacity="0.8"/>
<path d="M243.406 70.6261C243.508 70.3834 243.623 70.1571 243.75 69.9502C243.984 69.5244 244.315 68.889 244.708 68.0915C246.773 63.9279 248.371 59.1901 249.429 54.1005C249.634 53.1272 249.785 52.3297 249.883 51.7755C249.924 51.4825 249.983 51.1971 250.059 50.9238C250.047 51.2241 250.014 51.5211 249.961 51.8093C249.891 52.377 249.756 53.161 249.552 54.1749C248.57 59.352 246.955 64.1415 244.806 68.247C244.397 69.031 244.045 69.646 243.791 70.0448C243.675 70.2601 243.546 70.4549 243.406 70.6261Z" fill="#E0E0E0"/>
<path d="M279.219 297.712C279.607 298.974 280.179 300.058 280.884 300.866C281.589 301.673 282.404 302.179 283.256 302.338C284.109 302.497 284.972 302.303 285.768 301.775C286.564 301.248 287.268 300.402 287.817 299.314C285.213 296.421 282.232 294.582 279.219 297.712Z" fill="#EBEBEB" fill-opacity="0.8"/>
<path d="M277.773 296.604C278.731 297.304 279.716 297.9 280.721 298.388C281.744 298.761 282.781 299.018 283.825 299.158C283.52 299.269 283.206 299.301 282.895 299.253C281.388 299.168 279.91 298.543 278.564 297.421C278.277 297.216 278.011 296.94 277.773 296.604Z" fill="#E0E0E0"/>
<path d="M317.172 55.0392C317.7 56.1568 318.389 57.0397 319.175 57.6085C319.962 58.1773 320.822 58.414 321.678 58.2973C322.533 58.1807 323.358 57.7143 324.077 56.9402C324.797 56.1661 325.388 55.1086 325.798 53.8631C322.904 51.8355 319.768 51.0041 317.172 55.0392Z" fill="#EBEBEB" fill-opacity="0.8"/>
<path d="M315.621 54.418C317.655 55.297 319.776 55.4924 321.857 54.9925C321.569 55.1924 321.266 55.3222 320.956 55.3777C319.466 55.7782 317.942 55.6375 316.489 54.9654C316.185 54.8564 315.892 54.6718 315.621 54.418Z" fill="#E0E0E0"/>
<path d="M415.535 75.8305C416.909 76.4544 418.354 76.5052 419.743 75.9783C421.131 75.4515 422.418 74.3634 423.489 72.812C424.559 71.2606 425.379 69.2944 425.876 67.0901C426.372 64.8859 426.528 62.5126 426.332 60.1836C421.271 62.2113 416.579 66.2193 415.535 75.8305Z" fill="#EBEBEB" fill-opacity="0.8"/>
<path d="M413.086 77.5331C413.086 77.479 413.63 77.1614 414.498 76.5395C416.765 74.9246 418.843 72.6693 420.64 69.8752C421.332 68.8006 421.725 68.0841 421.753 68.1247C421.686 68.3242 421.604 68.5082 421.508 68.6722C421.34 69.0169 421.098 69.49 420.746 70.0239C418.989 72.9491 416.882 75.2372 414.56 76.7423C414.118 77.0262 413.741 77.2357 413.495 77.3506C413.364 77.4395 413.227 77.5008 413.086 77.5331Z" fill="#E0E0E0"/>
<path d="M425.232 281.835C427.648 280.912 429.887 279.012 431.747 276.306C433.608 273.6 435.033 270.174 435.892 266.334C436.752 262.495 437.021 258.363 436.673 254.309C436.326 250.256 435.374 246.409 433.903 243.113C427.177 253.177 421.993 265.695 425.232 281.835Z" fill="#EBEBEB" fill-opacity="0.8"/>
<path d="M422.332 287.784C422.471 287.46 422.625 287.153 422.791 286.865C423.098 286.297 423.528 285.452 424.039 284.391C424.551 283.33 425.141 282.025 425.751 280.538C426.361 279.051 426.979 277.355 427.581 275.53C428.183 273.705 428.674 271.907 429.096 270.245C429.517 268.582 429.849 267.061 430.099 265.763C430.349 264.466 430.537 263.411 430.656 262.675C430.707 262.287 430.778 261.907 430.868 261.539C430.842 261.934 430.798 262.324 430.737 262.708C430.643 263.459 430.475 264.526 430.242 265.838C430.009 267.149 429.685 268.69 429.28 270.373C428.875 272.056 428.363 273.854 427.769 275.699C427.202 277.423 426.583 279.099 425.914 280.721C425.288 282.208 424.686 283.499 424.158 284.546C423.63 285.594 423.175 286.419 422.852 286.959C422.692 287.257 422.518 287.532 422.332 287.784Z" fill="#E0E0E0"/>
<path d="M14.8211 291V249.6L109.621 114H166.921V246.6H191.521V291H166.921V330H115.621V291H14.8211ZM119.221 170.4L68.8211 246.6H119.221V170.4ZM216.648 217.5C216.648 183.1 223.248 156 236.448 136.2C249.848 116.4 271.348 106.5 300.948 106.5C330.548 106.5 351.948 116.4 365.148 136.2C378.548 156 385.248 183.1 385.248 217.5C385.248 252.3 378.548 279.6 365.148 299.4C351.948 319.2 330.548 329.1 300.948 329.1C271.348 329.1 249.848 319.2 236.448 299.4C223.248 279.6 216.648 252.3 216.648 217.5ZM334.848 217.5C334.848 197.3 332.648 181.8 328.248 171C323.848 160 314.748 154.5 300.948 154.5C287.148 154.5 278.048 160 273.648 171C269.248 181.8 267.048 197.3 267.048 217.5C267.048 231.1 267.848 242.4 269.448 251.4C271.048 260.2 274.248 267.4 279.048 273C284.048 278.4 291.348 281.1 300.948 281.1C310.548 281.1 317.748 278.4 322.548 273C327.548 267.4 330.848 260.2 332.448 251.4C334.048 242.4 334.848 231.1 334.848 217.5ZM413.552 291V249.6L508.352 114H565.652V246.6H590.252V291H565.652V330H514.352V291H413.552ZM517.952 170.4L467.552 246.6H517.952V170.4Z" fill="url(#paint0_linear_1110_56129)"/>
<defs>
<linearGradient id="paint0_linear_1110_56129" x1="635.5" y1="194" x2="-42" y2="254.5" gradientUnits="userSpaceOnUse">
<stop stop-color=" #c23d34"/>
<stop offset="0.477671" stop-color=" #f7941d"/>
<stop offset="1" stop-color=" #c23d34"/>
</linearGradient>
</defs>
</svg>
