<svg width="310" height="209" viewBox="0 0 310 209" fill="none" xmlns="http://www.w3.org/2000/svg">
<path d="M184.769 196.087H126.1C117.567 196.087 110.625 189.171 110.625 180.668V28.0239C110.625 19.5217 117.567 12.6054 126.1 12.6054H184.769C193.302 12.6054 200.244 19.5217 200.244 28.0239V180.668C200.244 189.171 193.302 196.087 184.769 196.087Z" fill="#CACCCC"/>
<path d="M184.811 191.913H126.058C119.742 191.913 114.602 186.791 114.602 180.499V27.8938C114.602 21.6011 119.742 16.4798 126.058 16.4798H184.811C191.127 16.4798 196.267 21.6011 196.267 27.8938V180.499C196.267 186.791 191.127 191.913 184.811 191.913Z" fill="#FAF9F6"/>
<path d="M163.743 26.6377H147.129C144.935 26.6377 143.152 24.861 143.152 22.6756C143.152 20.4903 144.935 18.7135 147.129 18.7135H163.743C165.937 18.7135 167.72 20.4903 167.72 22.6756C167.72 24.861 165.937 26.6377 163.743 26.6377Z" fill="#DADBDC"/>
<path d="M180.698 73.2382H132.082C131.119 73.2382 130.335 72.2454 130.335 71.0287C130.335 69.8119 131.119 68.8191 132.082 68.8191H180.698C181.661 68.8191 182.445 69.8119 182.445 71.0287C182.445 72.2454 181.661 73.2382 180.698 73.2382Z" fill="#DADBDC"/>
<path d="M180.698 83.0299H132.082C131.119 83.0299 130.335 82.0371 130.335 80.8204C130.335 79.6036 131.119 78.6108 132.082 78.6108H180.698C181.661 78.6108 182.445 79.6036 182.445 80.8204C182.445 82.0371 181.661 83.0299 180.698 83.0299Z" fill="#DADBDC"/>
<path d="M166.757 92.8216H132.082C131.119 92.8216 130.335 91.8288 130.335 90.612C130.335 89.3953 131.119 88.4025 132.082 88.4025H166.757C167.72 88.4025 168.504 89.3953 168.504 90.612C168.504 91.8288 167.72 92.8216 166.757 92.8216Z" fill="#DADBDC"/>
<g opacity="0.1">
<rect x="141.346" y="125.845" width="28.4806" height="28.3762" rx="14.1881" fill="#54A39B"/>
</g>
<rect x="143.087" y="127.58" width="24.9996" height="24.908" rx="12.454" fill="#FAF9F6"/>
<g opacity="0.7">
<path d="M159.386 147.147C158.237 148.119 156.774 148.726 155.267 148.859C155.059 148.877 154.905 149.061 154.924 149.269C154.936 149.399 155.012 149.508 155.12 149.567C155.183 149.602 155.256 149.618 155.333 149.612C156.995 149.466 158.608 148.795 159.874 147.724C160.034 147.589 160.053 147.351 159.919 147.192C159.785 147.033 159.546 147.012 159.387 147.147H159.386Z" fill="#00756A"/>
<path d="M153.37 148.78C152.586 148.643 151.833 148.38 151.131 147.996C150.335 147.561 149.637 146.991 149.056 146.301C148.921 146.141 148.683 146.121 148.524 146.255C148.364 146.39 148.344 146.628 148.478 146.788C149.12 147.549 149.891 148.179 150.768 148.659C151.543 149.082 152.375 149.373 153.24 149.524C153.446 149.56 153.641 149.423 153.678 149.217C153.714 149.011 153.575 148.815 153.37 148.78Z" fill="#00756A"/>
<path d="M147.401 140.48C147.432 140.273 147.289 140.081 147.083 140.052C146.876 140.021 146.684 140.164 146.654 140.37C146.429 141.898 146.646 143.457 147.281 144.878C147.316 144.956 147.374 145.017 147.444 145.054C147.544 145.109 147.667 145.118 147.78 145.068C147.97 144.983 148.056 144.76 147.97 144.569C147.393 143.28 147.197 141.866 147.401 140.48Z" fill="#00756A"/>
<path d="M152.549 132.249C152.728 132.143 152.787 131.911 152.681 131.732C152.575 131.553 152.343 131.494 152.163 131.6C150.923 132.336 149.902 133.393 149.21 134.659L147.552 137.693C147.369 138.027 147.208 138.378 147.075 138.734C147.008 138.913 147.085 139.109 147.247 139.198C147.263 139.207 147.279 139.214 147.297 139.221C147.492 139.294 147.709 139.195 147.782 139C147.903 138.677 148.049 138.359 148.215 138.055L149.873 135.021C150.499 133.875 151.424 132.917 152.549 132.25V132.249Z" fill="#00756A"/>
<path d="M153.367 131.681C153.461 131.732 153.575 131.744 153.683 131.702C155.525 130.998 157.519 131.051 159.299 131.849C159.489 131.935 159.713 131.849 159.798 131.659C159.883 131.469 159.798 131.245 159.608 131.16C157.644 130.278 155.444 130.22 153.413 130.996C153.218 131.071 153.121 131.288 153.196 131.483C153.229 131.571 153.292 131.638 153.367 131.68V131.681Z" fill="#00756A"/>
<path d="M159.515 133.592C159.391 133.761 159.428 133.996 159.596 134.121C160.482 134.772 161.164 135.661 161.569 136.695C161.603 136.781 161.664 136.848 161.74 136.889C161.834 136.94 161.95 136.952 162.059 136.909C162.253 136.833 162.349 136.614 162.273 136.42C161.816 135.253 161.045 134.247 160.043 133.511C159.875 133.388 159.638 133.424 159.516 133.592H159.515Z" fill="#00756A"/>
<path d="M156.295 147.447C156.252 147.244 156.052 147.113 155.848 147.156C154.742 147.39 153.602 147.298 152.549 146.891C152.355 146.815 152.136 146.912 152.061 147.107C151.986 147.301 152.083 147.52 152.277 147.595C153.467 148.055 154.755 148.159 156.004 147.895C156.208 147.851 156.339 147.651 156.296 147.447H156.295Z" fill="#00756A"/>
<path d="M148.871 143.139C148.676 143.214 148.578 143.432 148.652 143.627C148.961 144.438 149.418 145.168 150.008 145.797C150.036 145.827 150.068 145.852 150.103 145.87C150.242 145.947 150.42 145.929 150.542 145.814C150.694 145.671 150.702 145.432 150.558 145.28C150.036 144.723 149.632 144.077 149.358 143.358C149.284 143.163 149.066 143.066 148.871 143.139Z" fill="#00756A"/>
<path d="M160.721 131.769C160.548 131.656 160.312 131.704 160.198 131.878C160.084 132.053 160.133 132.287 160.309 132.401C163.488 134.477 164.551 138.714 162.73 142.047L161.144 144.948L161.072 145.08C161.01 145.194 160.943 145.309 160.874 145.421C160.868 145.429 160.865 145.439 160.86 145.448C160.75 145.575 160.562 145.613 160.409 145.529C160.231 145.432 160.166 145.209 160.263 145.031L160.436 144.715L161.926 141.987C162.527 140.887 162.8 139.644 162.714 138.392C162.7 138.184 162.52 138.026 162.312 138.041C162.103 138.055 161.946 138.235 161.961 138.444C162.036 139.552 161.796 140.652 161.264 141.625L159.773 144.353L159.6 144.67L159.567 144.73C159.551 144.759 159.541 144.789 159.534 144.819C159.344 145.332 159.552 145.923 160.047 146.193C160.589 146.489 161.272 146.289 161.569 145.746L161.735 145.443L161.807 145.31L163.392 142.409C165.402 138.733 164.228 134.059 160.721 131.769Z" fill="#00756A"/>
<path d="M148.88 142.362C149.048 142.454 149.237 142.505 149.435 142.509C149.758 142.515 150.064 142.396 150.297 142.172C150.518 141.96 150.647 141.679 150.666 141.375C150.666 141.371 150.666 141.367 150.667 141.363C150.667 141.35 150.669 141.337 150.669 141.324C150.669 141.317 150.667 141.311 150.667 141.304C150.667 141.301 150.667 141.298 150.667 141.295C150.576 140.514 150.711 139.724 151.088 139.034L152.2 137C153.414 134.779 156.298 134.038 158.448 135.481C160.328 136.742 160.869 139.274 159.783 141.26L158.814 143.034C157.706 145.061 155.21 145.851 153.147 144.878C152.925 144.838 152.733 144.951 152.676 145.101C152.555 145.425 152.804 145.567 152.85 145.578C155.266 146.7 158.18 145.767 159.476 143.396L160.493 141.535C161.905 138.952 160.843 135.67 158.111 134.433C155.739 133.358 152.733 134.446 151.485 136.732L150.518 138.501C150.046 139.364 149.838 140.337 149.912 141.318C149.907 141.437 149.859 141.547 149.773 141.628C149.686 141.712 149.57 141.757 149.448 141.755C149.327 141.753 149.214 141.703 149.129 141.615C149.054 141.536 149.012 141.435 149.006 141.328C148.987 140.323 149.232 139.325 149.714 138.442L151.052 135.994C151.7 134.809 152.751 133.88 154.014 133.379C154.438 133.211 154.881 133.091 155.332 133.024C155.578 132.988 155.732 132.724 155.614 132.479C155.543 132.331 155.372 132.255 155.21 132.279C154.706 132.354 154.21 132.488 153.736 132.677C152.31 133.243 151.123 134.292 150.391 135.632L149.053 138.08C148.523 139.049 148.249 140.14 148.252 141.244C148.252 141.254 148.249 141.264 148.249 141.275C148.249 141.307 148.249 141.338 148.251 141.369C148.251 141.373 148.251 141.376 148.251 141.38C148.251 141.381 148.251 141.382 148.251 141.383C148.27 141.666 148.386 141.931 148.585 142.138C148.672 142.229 148.771 142.304 148.879 142.363L148.88 142.362Z" fill="#00756A"/>
<path d="M157.265 132.617C157.104 132.862 157.171 133.19 157.416 133.351C157.66 133.512 157.989 133.445 158.15 133.2C158.311 132.956 158.243 132.627 157.999 132.466C157.754 132.305 157.426 132.373 157.265 132.617Z" fill="#00756A"/>
<path d="M157.795 146.385C157.634 146.63 157.701 146.958 157.946 147.119C158.19 147.281 158.519 147.213 158.68 146.968C158.841 146.724 158.774 146.395 158.529 146.234C158.285 146.073 157.956 146.141 157.795 146.385Z" fill="#00756A"/>
<path d="M156.672 136.676C156.898 136.227 157.446 136.045 157.896 136.272C158.345 136.498 158.527 137.046 158.3 137.496C158.074 137.945 157.526 138.127 157.076 137.9C156.627 137.674 156.445 137.126 156.672 136.676Z" fill="#00756A"/>
<path d="M158.85 138.082C159.078 138.552 159.146 139.07 159.045 139.584C158.974 139.948 158.847 140.233 158.658 140.477C158.547 140.644 158.415 140.798 158.262 140.936C158.092 141.088 157.821 141.058 157.692 140.856C157.596 140.705 157.629 140.508 157.755 140.382C157.8 140.336 157.847 140.29 157.891 140.244C157.926 140.207 157.96 140.169 157.991 140.128C157.995 140.124 157.998 140.118 158.002 140.114C158.018 140.093 158.031 140.071 158.046 140.05C158.192 139.809 158.286 139.555 158.326 139.304C158.344 139.147 158.343 138.984 158.316 138.813C158.292 138.669 158.229 138.537 158.173 138.404C158.104 138.239 158.148 138.045 158.295 137.942C158.49 137.803 158.753 137.877 158.853 138.082H158.85Z" fill="#00756A"/>
<path d="M155.041 141.368C155.083 141.571 154.952 141.77 154.748 141.813C154.545 141.855 154.346 141.724 154.303 141.52C154.287 141.442 154.201 141.158 154.119 140.884C153.846 139.983 153.618 139.206 153.59 138.834C153.561 138.43 153.579 137.891 153.987 137.3C154.186 137.012 154.44 136.784 154.723 136.614C154.757 136.593 154.791 136.576 154.825 136.558C154.863 136.537 154.9 136.515 154.939 136.496C155.004 136.466 155.068 136.441 155.134 136.418C155.309 136.355 155.491 136.313 155.674 136.291C155.691 136.289 155.708 136.286 155.725 136.285C155.769 136.281 155.814 136.278 155.858 136.276C155.906 136.273 155.954 136.267 156.004 136.267C156.031 136.267 156.057 136.27 156.083 136.275C156.086 136.275 156.089 136.275 156.091 136.275C156.114 136.277 156.134 136.286 156.151 136.297C156.303 136.362 156.406 136.524 156.376 136.706C156.347 136.883 156.192 137.007 156.014 137.018C155.95 137.022 155.884 137.025 155.821 137.03C155.77 137.035 155.721 137.04 155.671 137.05C155.67 137.05 155.668 137.05 155.667 137.05C155.662 137.051 155.657 137.053 155.652 137.054C155.627 137.059 155.601 137.067 155.576 137.072C155.307 137.154 155.068 137.282 154.871 137.442C154.753 137.547 154.645 137.669 154.551 137.815C154.473 137.938 154.433 138.079 154.385 138.216C154.381 138.227 154.377 138.236 154.372 138.246C154.329 138.434 154.328 138.611 154.34 138.778C154.364 139.098 154.66 140.079 154.838 140.666C154.952 141.042 155.017 141.26 155.039 141.367L155.041 141.368Z" fill="#00756A"/>
<path d="M152.55 142.805C152.778 142.356 153.326 142.177 153.775 142.405C154.224 142.633 154.403 143.182 154.175 143.631C153.947 144.08 153.399 144.259 152.95 144.031C152.501 143.803 152.322 143.254 152.55 142.805Z" fill="#00756A"/>
<path d="M152.804 139.273C152.916 139.413 152.905 139.612 152.794 139.751C152.754 139.801 152.712 139.851 152.673 139.903C152.642 139.943 152.613 139.984 152.586 140.028C152.583 140.034 152.581 140.039 152.578 140.045C152.564 140.067 152.553 140.09 152.541 140.113C152.422 140.368 152.356 140.631 152.343 140.884C152.342 141.042 152.361 141.204 152.406 141.372C152.445 141.512 152.523 141.636 152.593 141.763C152.678 141.919 152.655 142.117 152.522 142.236C152.343 142.395 152.073 142.35 151.952 142.156C151.674 141.714 151.552 141.205 151.597 140.684C151.628 140.314 151.725 140.017 151.886 139.754C151.978 139.575 152.093 139.408 152.23 139.255C152.383 139.084 152.656 139.086 152.806 139.273H152.804Z" fill="#00756A"/>
<path d="M156.681 143.358C156.478 143.644 156.221 143.869 155.936 144.035C155.902 144.056 155.868 144.072 155.834 144.09C155.795 144.11 155.758 144.132 155.718 144.15C155.654 144.18 155.589 144.204 155.523 144.226C155.347 144.287 155.166 144.327 154.981 144.346C154.964 144.348 154.947 144.35 154.931 144.352C154.886 144.356 154.842 144.358 154.797 144.359C154.748 144.362 154.7 144.368 154.651 144.367C154.623 144.367 154.597 144.363 154.571 144.358C154.569 144.358 154.566 144.358 154.564 144.358C154.541 144.356 154.52 144.347 154.505 144.335C154.353 144.268 154.253 144.105 154.284 143.924C154.315 143.747 154.472 143.624 154.65 143.616C154.714 143.612 154.78 143.611 154.844 143.606C154.895 143.602 154.944 143.597 154.994 143.588C154.996 143.588 154.997 143.588 154.999 143.588C155.005 143.587 155.009 143.586 155.015 143.585C155.04 143.58 155.065 143.573 155.09 143.568C155.36 143.489 155.601 143.364 155.8 143.206C155.919 143.103 156.029 142.982 156.124 142.836C156.203 142.715 156.245 142.575 156.295 142.438C156.299 142.427 156.304 142.417 156.309 142.407C156.354 142.22 156.357 142.043 156.346 141.876C156.327 141.556 156.041 140.571 155.871 139.982C155.762 139.605 155.699 139.385 155.677 139.278C155.637 139.074 155.771 138.877 155.975 138.837C156.178 138.797 156.376 138.931 156.416 139.135C156.431 139.214 156.513 139.498 156.593 139.773C156.855 140.678 157.074 141.457 157.097 141.829C157.122 142.234 157.097 142.773 156.683 143.358L156.681 143.358Z" fill="#00756A"/>
</g>
</svg>
