<svg width="70" height="70" viewBox="0 0 70 70" fill="none" xmlns="http://www.w3.org/2000/svg">
<rect width="70" height="70" rx="35" fill="#FAF9F6"/>
<g clip-path="url(#clip0_3398_4461)">
<path d="M49.8275 36.0337C49.8275 35.9598 49.8072 35.9069 49.7656 35.8724C49.7195 35.8353 49.6398 35.8154 49.5288 35.8154H49.3692V36.2547H49.5618C49.7396 36.2547 49.8275 36.1808 49.8275 36.0337ZM50.0763 36.9495H49.857L49.7171 36.6405C49.6461 36.4856 49.5702 36.4082 49.4873 36.4082H49.3692V36.9495H49.1885V35.6612H49.5505C49.7115 35.6612 49.8324 35.6962 49.9154 35.769C49.9857 35.8316 50.0208 35.9119 50.0208 36.0119C50.0208 36.1006 49.9921 36.1752 49.9343 36.2371C49.8781 36.2998 49.7972 36.342 49.6939 36.3638V36.3694C49.7656 36.3863 49.8373 36.4652 49.9069 36.6074L50.0763 36.9502V36.9495ZM50.4769 36.3181C50.4769 36.0646 50.3905 35.8506 50.2183 35.681C50.0454 35.5113 49.8345 35.4262 49.5857 35.4262C49.3291 35.4262 49.1155 35.5113 48.946 35.6824C48.7766 35.8542 48.6923 36.0667 48.6923 36.3181C48.6923 36.575 48.7801 36.7897 48.9545 36.9608C49.1267 37.1318 49.3376 37.2163 49.5857 37.2163C49.8324 37.2163 50.0432 37.1311 50.2169 36.9579C50.3905 36.7876 50.4769 36.5736 50.4769 36.3181ZM50.5985 36.3125C50.5985 36.5969 50.5009 36.8355 50.3048 37.0277C50.1086 37.2213 49.8682 37.3177 49.5807 37.3177C49.2912 37.3177 49.0508 37.2227 48.8595 37.0361C48.6684 36.8468 48.5735 36.6089 48.5735 36.3203C48.5735 36.0379 48.6705 35.8007 48.8645 35.6058C49.0585 35.4115 49.3003 35.3143 49.5892 35.3143C49.8724 35.3143 50.11 35.4072 50.3026 35.5924C50.5001 35.7824 50.5985 36.0218 50.5985 36.3125Z" fill="black"/>
<path d="M23.1061 39.9048H22.4826V36.3315C22.4826 36.0492 22.5012 35.7057 22.5344 35.3002H22.5203C22.462 35.5374 22.4085 35.7092 22.3615 35.8155L20.5494 39.9048H20.2457L18.4301 35.8451C18.3789 35.7317 18.3254 35.5494 18.2712 35.3002H18.2577C18.2769 35.5135 18.2875 35.8592 18.2875 36.3385V39.9048H17.6865V34.5836H18.5089L20.139 38.2941C20.262 38.5736 20.3414 38.7862 20.3801 38.9312H20.4059C20.512 38.6405 20.5964 38.4222 20.6604 38.2786L22.3255 34.5836H23.1058V39.9048H23.1061Z" fill="black"/>
<path d="M25.024 39.9047H24.4181V36.1047H25.024V39.9047ZM25.1288 34.7425C25.1288 34.8545 25.0894 34.9481 25.0113 35.0248C24.9348 35.1015 24.8399 35.1403 24.7288 35.1403C24.6205 35.1403 24.5263 35.1031 24.4491 35.0291C24.3718 34.9545 24.3337 34.8594 24.3337 34.7425C24.3337 34.6327 24.372 34.5391 24.4491 34.4631C24.5263 34.3871 24.6205 34.3505 24.7288 34.3505C24.8398 34.3505 24.9348 34.3871 25.0113 34.4631C25.0894 34.5391 25.1288 34.6327 25.1288 34.7425Z" fill="black"/>
<path d="M28.8104 39.7288C28.5194 39.9076 28.1722 39.9963 27.7708 39.9963C27.2268 39.9963 26.7889 39.8154 26.4543 39.4543C26.1296 39.1037 25.9658 38.6511 25.9658 38.0964C25.9658 37.474 26.1436 36.9701 26.5021 36.5871C26.8585 36.2034 27.3379 36.012 27.941 36.012C28.2706 36.012 28.563 36.0767 28.8189 36.2048V36.8293C28.5356 36.63 28.2362 36.5315 27.915 36.5315C27.5283 36.5315 27.2142 36.6666 26.9702 36.9363C26.7165 37.2122 26.5879 37.5811 26.5879 38.0415C26.5879 38.4836 26.7053 38.8334 26.9386 39.0918C27.1727 39.3487 27.4841 39.4776 27.877 39.4776C28.2088 39.4776 28.5194 39.3684 28.8104 39.1509V39.7288Z" fill="black"/>
<path d="M31.7084 36.7212C31.6015 36.6388 31.4476 36.5987 31.2445 36.5987C30.9978 36.5987 30.7904 36.7092 30.6224 36.9323C30.4319 37.1816 30.337 37.5265 30.337 37.9672V39.9044H29.7297V36.1045H30.337V36.888H30.3517C30.441 36.6107 30.5787 36.3973 30.7629 36.246C30.9351 36.1081 31.1298 36.0383 31.3442 36.0383C31.5058 36.0383 31.6261 36.0558 31.7083 36.0901V36.7209L31.7084 36.7212Z" fill="black"/>
<path d="M35.0932 38.0115C35.0932 37.5251 34.9835 37.1535 34.7642 36.8986C34.5513 36.6537 34.2539 36.5312 33.8709 36.5312C33.4934 36.5312 33.1904 36.6551 32.9641 36.9028C32.7244 37.1675 32.6049 37.5413 32.6049 38.0264C32.6049 38.4811 32.7188 38.838 32.9486 39.0928C33.177 39.3491 33.4849 39.4772 33.8709 39.4772C34.2701 39.4772 34.5758 39.347 34.7853 39.0879C34.9906 38.8345 35.0932 38.4762 35.0932 38.0115ZM35.716 37.9901C35.716 38.5955 35.5452 39.082 35.205 39.4467C34.8634 39.8127 34.4037 39.9957 33.8259 39.9957C33.2565 39.9957 32.8031 39.8127 32.4707 39.4467C32.1452 39.0939 31.9814 38.6279 31.9814 38.0486C31.9814 37.3876 32.1663 36.8779 32.5374 36.5161C32.8804 36.1803 33.3394 36.0114 33.9144 36.0114C34.4802 36.0114 34.9224 36.188 35.2408 36.5379C35.5564 36.8899 35.716 37.3742 35.716 37.9901Z" fill="black"/>
<path d="M38.728 38.8879C38.728 39.1991 38.6121 39.4567 38.3794 39.6623C38.1257 39.8848 37.777 39.996 37.3384 39.996C36.9792 39.996 36.6643 39.9207 36.3972 39.7672V39.1132C36.6946 39.3554 37.0228 39.4772 37.3834 39.4772C37.8642 39.4772 38.1053 39.2998 38.1053 38.9464C38.1053 38.7978 38.0524 38.6747 37.9458 38.5796C37.8389 38.4825 37.6315 38.3663 37.323 38.2305C37.0053 38.0911 36.7789 37.9482 36.6454 37.7996C36.4851 37.6236 36.4042 37.3949 36.4042 37.1133C36.4042 36.7979 36.5301 36.5353 36.7789 36.3263C37.0284 36.1165 37.349 36.0116 37.7426 36.0116C38.0442 36.0116 38.3141 36.0707 38.5537 36.1897V36.8022C38.3035 36.6212 38.0174 36.5311 37.6927 36.5311C37.4917 36.5311 37.33 36.5812 37.2098 36.6789C37.0882 36.7789 37.027 36.9064 37.027 37.0619C37.027 37.2302 37.0782 37.3611 37.1796 37.4547C37.2695 37.5413 37.4607 37.6469 37.7489 37.7701C38.0729 37.906 38.307 38.0468 38.4497 38.191C38.6346 38.3734 38.728 38.6057 38.728 38.8879Z" fill="black"/>
<path d="M42.4396 38.0115C42.4396 37.5251 42.33 37.1535 42.11 36.8986C41.8977 36.6537 41.5997 36.5312 41.2173 36.5312C40.8398 36.5312 40.5369 36.6551 40.3091 36.9028C40.0702 37.1675 39.9513 37.5413 39.9513 38.0264C39.9513 38.4811 40.0652 38.838 40.2929 39.0928C40.5242 39.3491 40.8321 39.4772 41.2173 39.4772C41.6172 39.4772 41.9223 39.347 42.1318 39.0879C42.337 38.8345 42.4396 38.4762 42.4396 38.0115ZM43.0638 37.9901C43.0638 38.5955 42.8916 39.082 42.5507 39.4467C42.2105 39.8127 41.7508 39.9957 41.173 39.9957C40.603 39.9957 40.1496 39.8127 39.8171 39.4467C39.4916 39.0939 39.3279 38.6279 39.3279 38.0486C39.3279 37.3876 39.5141 36.8779 39.8832 36.5161C40.2262 36.1803 40.6859 36.0114 41.2616 36.0114C41.8274 36.0114 42.2688 36.188 42.5866 36.5379C42.9029 36.8899 43.0638 37.3742 43.0638 37.9901Z" fill="black"/>
<path d="M45.7399 34.8135C45.6204 34.7473 45.4876 34.7135 45.3364 34.7135C44.9111 34.7135 44.7003 34.9817 44.7003 35.5189V36.1046H45.5895V36.6199H44.7003V39.9045H44.0923V36.6199H43.447V36.1046H44.0923V35.4886C44.0923 35.0704 44.2202 34.7424 44.4803 34.5059C44.7031 34.3003 44.9758 34.1982 45.2999 34.1982C45.4876 34.1982 45.6338 34.2208 45.7399 34.2644V34.8135Z" fill="black"/>
<path d="M48.1369 39.8663C47.9936 39.9487 47.8024 39.9896 47.5662 39.9896C46.9041 39.9896 46.573 39.6157 46.573 38.8681V36.6204H45.9221V36.1044H46.573V35.1773C46.767 35.1161 46.9687 35.0492 47.1817 34.9802V36.1044H48.1369V36.6204H47.1817V38.7647C47.1817 39.0195 47.2233 39.2018 47.3103 39.3074C47.3982 39.4165 47.5416 39.47 47.7441 39.47C47.8952 39.47 48.0259 39.4295 48.1369 39.3476V39.8663Z" fill="black"/>
<path d="M15.3055 54.7353C15.3055 55.0331 15.1994 55.2907 14.985 55.5083C14.7713 55.7251 14.5119 55.8342 14.2076 55.8342C13.9102 55.8342 13.6572 55.7251 13.4498 55.5083C13.2425 55.2907 13.1392 55.0331 13.1392 54.7353C13.1392 54.4291 13.2425 54.1707 13.4498 53.9568C13.6572 53.742 13.9102 53.6357 14.2076 53.6357C14.5119 53.6357 14.7713 53.7435 14.985 53.961C15.1994 54.1785 15.3055 54.4368 15.3055 54.7353Z" fill="black"/>
<path d="M28.9038 55.6104H26.923L19.733 44.4901C19.565 44.2226 19.4202 43.9319 19.2972 43.6144H19.2381C19.2893 43.9121 19.3155 44.5513 19.3155 45.5306V55.6104H17.6826V41.6588H19.8019L26.7768 52.6039C27.0545 53.0382 27.2442 53.3493 27.3406 53.5366H27.3793C27.3147 53.1353 27.281 52.4511 27.281 51.4853V41.6588H28.904V55.6104H28.9038Z" fill="black"/>
<path d="M39.3719 55.6104H31.9885V41.6588H39.0513V43.1371H33.62V47.7783H38.6528V49.2573H33.62V54.1315H39.3719V55.6104Z" fill="black"/>
<path d="M50.5709 43.1373H46.558V55.6107H44.9259V43.1373H40.9053V41.6583H50.5709V43.1373Z" fill="black"/>
<path d="M28.3499 17.5611C29.9251 22.3853 30.5218 30.9911 35.128 30.9911C35.4787 30.9911 35.833 30.9568 36.1887 30.889C32.0014 29.9113 31.5052 21.399 28.9501 16.9908C28.7498 17.1732 28.5509 17.3633 28.3499 17.5611Z" fill="url(#paint0_linear_3398_4461)"/>
<path d="M28.9502 16.9908C31.5053 21.399 32.0015 29.9113 36.1887 30.889C36.5177 30.8285 36.8473 30.737 37.1777 30.6215C33.4193 28.7772 32.3804 20.5113 29.4788 16.5319C29.303 16.6783 29.1266 16.8318 28.9502 16.9908Z" fill="url(#paint1_linear_3398_4461)"/>
<path d="M32.6316 14.3693C32.2815 14.3693 31.9266 14.4036 31.5702 14.4714C30.6381 14.6473 29.6914 15.0493 28.7368 15.6575C28.9976 15.9151 29.2457 16.2101 29.479 16.5318C30.4498 15.7251 31.4142 15.1288 32.3751 14.7705C32.7356 14.6368 33.0948 14.5361 33.4554 14.47C33.1953 14.4037 32.9212 14.3693 32.6316 14.3693Z" fill="#14559A"/>
<path d="M40.1116 28.9214C40.4961 28.6152 40.8813 28.2766 41.2672 27.9071C39.6667 23.1054 39.0938 14.3763 34.4553 14.3763C34.1235 14.3763 33.789 14.4073 33.4551 14.4693C37.6802 15.5217 38.2215 24.728 40.1116 28.9214Z" fill="url(#paint2_linear_3398_4461)"/>
<path d="M33.4552 14.4696C33.1951 14.4035 32.921 14.369 32.6313 14.369L34.4554 14.3757C34.1236 14.3757 33.789 14.4067 33.4552 14.4694" fill="#3092C4"/>
<path d="M40.0306 29.9416C39.8492 29.7684 39.677 29.5784 39.5076 29.3756C38.7274 29.9289 37.95 30.3485 37.1775 30.6216C37.4523 30.7561 37.7405 30.8561 38.0463 30.918C38.2831 30.9664 38.5285 30.9912 38.7864 30.9912C39.6531 30.9912 40.3384 30.8884 40.9218 30.6083C40.6006 30.4344 40.3061 30.2091 40.0306 29.9416Z" fill="#1969BC"/>
<path d="M32.3748 14.7714C36.1592 16.7537 36.4882 25.7305 39.5079 29.3756C39.7103 29.2327 39.9106 29.0814 40.1109 28.9215C38.2208 24.7281 37.6803 15.5211 33.4558 14.4694C33.0952 14.5369 32.7353 14.637 32.3748 14.7714Z" fill="url(#paint3_linear_3398_4461)"/>
<path d="M29.4788 16.5319C32.3804 20.5114 33.4193 28.7772 37.1777 30.6216C37.9502 30.3484 38.7276 29.9289 39.5078 29.3756C36.4881 25.7305 36.1592 16.7537 32.3747 14.7714C31.4139 15.129 30.4495 15.7252 29.4788 16.5319Z" fill="url(#paint4_linear_3398_4461)"/>
<path d="M26.4935 17.4449C26.0387 18.4749 25.5741 19.8285 25.0125 21.5954C26.1294 20.0193 27.2428 18.6614 28.3499 17.5611C28.1973 17.0916 28.0336 16.6586 27.8571 16.2728C27.4044 16.6199 26.9483 17.0106 26.4935 17.4449Z" fill="url(#paint5_linear_3398_4461)"/>
<path d="M28.2604 15.976C28.1268 16.0717 27.9926 16.1696 27.8577 16.273C28.0341 16.6588 28.1971 17.0917 28.3497 17.5613C28.5507 17.3641 28.7503 17.1734 28.9499 16.9911C28.7356 16.6222 28.5078 16.2815 28.2604 15.976Z" fill="#2B74B1"/>
<path d="M28.7368 15.6576C28.578 15.7583 28.4198 15.8645 28.2603 15.9758C28.5077 16.2813 28.7354 16.622 28.9505 16.9916C29.127 16.8318 29.3034 16.6776 29.4791 16.5319C29.2457 16.2102 28.9976 15.9152 28.7368 15.6576Z" fill="#125A9E"/>
<path d="M54.5501 14.0019C52.4097 22.2684 47.9392 28.9081 44.1913 30.5821H44.1842C44.1161 30.6131 44.0486 30.6413 43.9818 30.6687C43.9726 30.6743 43.9643 30.675 43.9572 30.6783C43.9375 30.6863 43.9192 30.6924 43.8995 30.7003C43.8904 30.7059 43.882 30.7077 43.8736 30.711C43.842 30.7223 43.811 30.7319 43.7801 30.7442C43.7667 30.7498 43.7541 30.7533 43.7414 30.7578C43.7273 30.7634 43.7111 30.7685 43.695 30.773C43.6809 30.7786 43.6662 30.7826 43.65 30.7887C43.6366 30.7943 43.6226 30.7967 43.61 30.8023C43.5825 30.8102 43.5573 30.8169 43.5298 30.8265C43.5186 30.8265 43.5081 30.8326 43.4961 30.8355C43.4792 30.8411 43.4602 30.8452 43.442 30.8502C43.4293 30.8558 43.4188 30.8576 43.4054 30.8604C43.3864 30.8659 43.3653 30.8711 43.3464 30.8756C43.3211 30.8812 43.2986 30.8863 43.2747 30.8914C43.4441 30.954 43.6205 30.9857 43.811 30.9857C47.3649 30.9857 50.9482 24.6072 56.8773 14H54.5493L54.5501 14.0019Z" fill="url(#paint6_linear_3398_4461)"/>
<path d="M24.2407 14.7047C24.2429 14.7047 24.2457 14.6991 24.2471 14.6991C24.2499 14.6991 24.2542 14.6991 24.2556 14.6936H24.26C24.2797 14.6869 24.298 14.6789 24.3177 14.6716C24.3227 14.6716 24.3253 14.6716 24.3289 14.666C24.3339 14.666 24.3388 14.6604 24.3437 14.6597C24.3648 14.6531 24.3859 14.6451 24.4056 14.6378H24.4089C24.456 14.6237 24.4996 14.6063 24.5453 14.5899C24.5517 14.5899 24.558 14.5843 24.5656 14.5843C24.5846 14.5782 24.6043 14.5714 24.624 14.5669C24.6332 14.5613 24.6423 14.5613 24.6507 14.5584C24.671 14.5522 24.6908 14.5454 24.7097 14.5409C24.7182 14.5409 24.7259 14.5353 24.7322 14.5348C24.7976 14.5168 24.8623 14.4999 24.9276 14.4841C24.9368 14.4841 24.9445 14.4785 24.9543 14.478C24.9733 14.4724 24.9909 14.4695 25.0113 14.4667C25.0198 14.4611 25.0296 14.4611 25.0394 14.4582C25.0584 14.4526 25.0766 14.452 25.097 14.4474H25.1104C25.1498 14.4395 25.1898 14.4328 25.2292 14.4255H25.2531C25.272 14.4199 25.2889 14.4193 25.3079 14.4158C25.3184 14.4158 25.329 14.4103 25.3389 14.4103C25.3564 14.4103 25.374 14.4047 25.3915 14.4023C25.4007 14.4023 25.4098 14.4023 25.4204 14.3967C25.4618 14.3912 25.5047 14.3889 25.5483 14.3854C25.4253 14.3736 25.2988 14.3657 25.1702 14.3657C21.1678 14.3657 15.6535 21.803 13.1694 31.4345H13.6481C14.4431 30.0146 15.1573 28.6715 15.8103 27.4107C17.5499 20.5887 21.0933 15.9362 24.2409 14.7036" fill="url(#paint7_linear_3398_4461)"/>
<path d="M26.4934 17.445C26.9482 17.0107 27.4044 16.62 27.857 16.2729C27.7537 16.0463 27.6469 15.8365 27.5323 15.6443C27.1661 16.0892 26.8315 16.6763 26.4934 17.445Z" fill="#0D82CA"/>
<path d="M26.8223 14.7611C27.0838 14.9808 27.3179 15.2828 27.5323 15.6446C27.5997 15.5615 27.668 15.4848 27.7389 15.413C27.4416 15.1349 27.1204 14.9069 26.7717 14.7351C26.7858 14.7429 26.7998 14.7492 26.8145 14.7554C26.8145 14.7554 26.82 14.761 26.8224 14.761" fill="#0D82CA"/>
<path d="M15.8101 27.4116C19.4595 20.3685 21.1887 15.911 24.2407 14.7045C21.0938 15.9378 17.5498 20.5902 15.8101 27.4116Z" fill="url(#paint8_linear_3398_4461)"/>
<path d="M27.7386 15.4128C27.6677 15.4854 27.6002 15.5614 27.532 15.6445C27.6466 15.8366 27.7534 16.0457 27.8575 16.2731C27.9924 16.1696 28.1266 16.0717 28.2602 15.976C28.095 15.7719 27.9207 15.5825 27.7386 15.4128Z" fill="#127BCA"/>
<path d="M17.4668 31.4036C17.4443 31.4092 17.4218 31.4092 17.4007 31.4116H17.388C17.369 31.4116 17.3493 31.4172 17.3318 31.4172H17.3226C17.277 31.4227 17.232 31.4227 17.1884 31.4262H17.1743C20.8681 31.3227 22.5565 29.4706 23.3943 26.7843C24.0312 24.7478 24.5541 23.0322 25.0124 21.5927C23.4653 23.7735 21.9112 26.3732 20.3486 29.2855C19.5951 30.6891 18.4494 31.2755 17.4667 31.4009" fill="url(#paint9_linear_3398_4461)"/>
<path d="M17.4668 31.4023C18.4495 31.277 19.5952 30.6913 20.3487 29.2869C21.9113 26.3754 23.4661 23.775 25.0118 21.5941C25.5741 19.8265 26.038 18.4735 26.4935 17.4436C23.4127 20.3805 20.3199 25.2639 17.4668 31.4009" fill="url(#paint10_linear_3398_4461)"/>
<path d="M15.8098 27.4117C15.1569 28.6725 14.4427 30.0157 13.6477 31.4355H15.0402C15.2244 30.0255 15.4858 28.6809 15.8098 27.4124" fill="#05A1E6"/>
<path d="M25.4202 14.4003C25.409 14.4003 25.4005 14.4059 25.3907 14.4059C25.3738 14.4115 25.3562 14.4115 25.3387 14.4133C25.3283 14.4133 25.3183 14.4133 25.3078 14.4189C25.2888 14.4245 25.2712 14.425 25.2529 14.4285C25.2444 14.4285 25.2361 14.4285 25.229 14.4341C25.1889 14.4408 25.1496 14.4482 25.1102 14.4549H25.0969C25.0765 14.4605 25.0582 14.4634 25.0392 14.4662C25.0294 14.4718 25.0196 14.4718 25.0104 14.474C24.9914 14.4796 24.9724 14.482 24.9542 14.4853C24.9443 14.4909 24.9366 14.4909 24.9275 14.4914C24.8621 14.5072 24.7974 14.5241 24.732 14.5421C24.7251 14.5421 24.718 14.5477 24.7096 14.5488C24.6899 14.5544 24.6709 14.5601 24.6505 14.5663C24.642 14.5719 24.6322 14.5719 24.6238 14.5741C24.6041 14.5797 24.5844 14.5854 24.5655 14.5916C24.5578 14.5916 24.5514 14.5971 24.5444 14.5971C24.4994 14.614 24.4551 14.6309 24.4087 14.645C24.389 14.6511 24.3679 14.6591 24.3469 14.6664C24.3384 14.672 24.3307 14.6732 24.3209 14.6771C24.3012 14.6833 24.2815 14.6912 24.2632 14.6985C24.2563 14.7041 24.2492 14.7047 24.2443 14.7076C21.1923 15.9142 19.4631 20.3716 15.8136 27.4147C15.4896 28.6832 15.2274 30.0278 15.0439 31.4378H15.2394C15.7897 31.4378 15.9451 31.4322 16.5784 31.4322H16.6107H16.7049H16.7372H16.7464H16.7787H16.797H16.8097H16.835H16.9137H16.9924H17.0585H17.076H17.192C17.2356 31.4266 17.2806 31.4266 17.3263 31.4231H17.3347C17.3537 31.4231 17.3727 31.4176 17.391 31.4176H17.4043C17.4246 31.4176 17.4479 31.412 17.4704 31.4096C20.3234 25.2726 23.4162 20.3892 26.4971 17.4523C26.8359 16.6836 27.1698 16.0965 27.5353 15.6523C27.3216 15.2905 27.0875 14.9878 26.826 14.7681C26.826 14.7681 26.8189 14.7681 26.8184 14.7625C26.8036 14.7564 26.7896 14.749 26.7748 14.7417C26.76 14.7337 26.7474 14.7276 26.732 14.7197C26.7186 14.7141 26.7031 14.7068 26.6898 14.6994C26.6715 14.6939 26.6567 14.6859 26.6406 14.6786C26.6272 14.673 26.6153 14.6673 26.6019 14.6617C26.5744 14.651 26.5471 14.6398 26.5211 14.6279C26.5091 14.6223 26.4979 14.6194 26.4866 14.615C26.4676 14.6081 26.4458 14.5992 26.4261 14.5907C26.4163 14.5852 26.405 14.584 26.3938 14.58C26.365 14.5704 26.3369 14.5603 26.3102 14.5513H26.3032C26.2708 14.5405 26.2392 14.5327 26.2062 14.5237C26.1985 14.5181 26.1921 14.5181 26.1844 14.517C26.1556 14.509 26.1303 14.5012 26.1029 14.4939C26.0959 14.4939 26.0895 14.4883 26.0839 14.4883C26.0179 14.4709 25.9497 14.4568 25.8808 14.4438C25.8737 14.4438 25.8667 14.4382 25.8597 14.4382C25.8302 14.4327 25.8014 14.4275 25.7718 14.4242C25.7647 14.4186 25.7606 14.4186 25.7543 14.4186C25.7192 14.413 25.6847 14.409 25.6503 14.4051H25.632C25.6039 14.3995 25.5779 14.3989 25.5519 14.396C25.5076 14.4016 25.4654 14.4039 25.4239 14.4078" fill="url(#paint11_linear_3398_4461)"/>
<path d="M46.1898 18.5784C45.4876 20.831 44.9189 22.6894 44.4241 24.2184C46.3507 21.5631 48.2486 18.2228 50.0558 14.368C47.9477 15.0311 46.8231 16.5489 46.1898 18.5784Z" fill="url(#paint12_linear_3398_4461)"/>
<path d="M44.4852 30.4414C44.3868 30.4915 44.2884 30.5392 44.1914 30.5822C47.9393 28.9082 52.4098 22.2685 54.5502 14.002H54.1164C49.1989 22.7992 47.6174 28.6885 44.4852 30.4414Z" fill="url(#paint13_linear_3398_4461)"/>
<path d="M42.0379 29.7023C42.8532 28.7055 43.5174 27.0111 44.4242 24.2185C43.3783 25.6574 42.3254 26.8943 41.2717 27.903C41.2717 27.9086 41.2717 27.9086 41.2661 27.9121C41.496 28.6019 41.7483 29.2108 42.0358 29.7022" fill="#079AE1"/>
<path d="M42.0379 29.7023C41.7602 30.0416 41.4664 30.3 41.1395 30.4914C41.0678 30.5331 40.9955 30.5724 40.9216 30.6083C41.2668 30.7948 41.6435 30.9194 42.0652 30.9694C42.127 30.9755 42.1882 30.9812 42.2522 30.9857H42.2635C42.2922 30.9857 42.3225 30.9857 42.3535 30.9913H42.3659H42.458H42.5571H42.588H42.6583C42.6696 30.9913 42.6814 30.9913 42.6926 30.9857C42.7146 30.9857 42.7376 30.9857 42.7601 30.9801H42.768H42.7933C42.8164 30.9801 42.8417 30.9746 42.8664 30.9722H42.872C42.8794 30.9722 42.8872 30.9666 42.8945 30.9666C42.9204 30.961 42.9474 30.9587 42.9726 30.9548H42.9956C43.0243 30.9492 43.0539 30.9457 43.0835 30.9401H43.089H43.0975C43.1566 30.9288 43.2142 30.9176 43.2725 30.903C42.7889 30.7256 42.384 30.3074 42.0354 29.7119" fill="#1969BC"/>
<path d="M35.1282 30.9913C35.4789 30.9913 35.8332 30.957 36.1889 30.8885C36.5179 30.8287 36.8475 30.7372 37.1778 30.6217C37.4527 30.7562 37.7409 30.8562 38.046 30.9181C38.2828 30.9665 38.5288 30.9913 38.7868 30.9913H35.1282Z" fill="#1E5CB3"/>
<path d="M38.7869 30.9912C39.6529 30.9912 40.3389 30.8885 40.9217 30.6083C41.2668 30.7948 41.6435 30.9194 42.0652 30.9694C42.1271 30.9756 42.1883 30.9813 42.2522 30.9858H42.2635C42.2922 30.9858 42.3226 30.9858 42.3535 30.9913H42.3664H42.4585H38.7844L38.7869 30.9912Z" fill="#1E5CB3"/>
<path d="M42.4607 30.9913H42.5605H42.5914H42.6611C42.6729 30.9913 42.6841 30.9913 42.6954 30.9857C42.7173 30.9857 42.7403 30.9857 42.7636 30.9801H42.7709H42.7968C42.8199 30.9801 42.8452 30.9746 42.8692 30.9723H42.8754C42.8827 30.9723 42.89 30.9668 42.8973 30.9668C42.9232 30.9612 42.9502 30.9589 42.9753 30.9549C42.9838 30.9549 42.9905 30.9549 42.9995 30.9493C43.0282 30.9437 43.0578 30.9408 43.0874 30.9352H43.0929H43.1014C43.1605 30.924 43.2181 30.9127 43.2764 30.8981C43.4458 30.9607 43.6223 30.9924 43.8127 30.9924L42.4617 30.998L42.4607 30.9913Z" fill="#1D60B5"/>
<path d="M41.2684 27.9121V27.9065C40.8825 28.276 40.4973 28.6147 40.1128 28.9209C39.9118 29.0807 39.7115 29.232 39.509 29.375C39.6784 29.5777 39.8506 29.7677 40.032 29.9409C40.3075 30.2084 40.602 30.4337 40.9233 30.6075C40.9964 30.5715 41.0695 30.5322 41.1404 30.4907C41.468 30.2992 41.7618 30.0409 42.0395 29.7016C41.752 29.2102 41.4997 28.6013 41.2698 27.9114" fill="#175FAB"/>
<path d="M52.7429 14.002H50.9196H50.7382H50.5667H50.56C50.4419 14.0075 50.3274 14.0116 50.2142 14.0189C50.1608 14.1336 50.1059 14.2484 50.0532 14.3638C48.246 18.2186 46.3482 21.5589 44.4215 24.2142C43.5155 27.0068 42.8505 28.7013 42.0352 29.6981C42.3838 30.2936 42.7894 30.7124 43.2716 30.8898C43.2856 30.8842 43.2969 30.8842 43.3095 30.8813H43.3173C43.3258 30.8813 43.3349 30.8757 43.344 30.8757C43.3637 30.8702 43.3848 30.8667 43.4045 30.8605C43.4172 30.855 43.4277 30.8544 43.4404 30.8504C43.4586 30.8448 43.4776 30.8407 43.4945 30.8363C43.5057 30.8307 43.517 30.8289 43.5282 30.8266C43.5563 30.8176 43.5816 30.8109 43.6083 30.8024C43.621 30.7968 43.6344 30.7922 43.6484 30.7889C43.6639 30.7833 43.6794 30.7793 43.6934 30.7726C43.7096 30.767 43.7257 30.7641 43.7398 30.7579C43.7525 30.7524 43.7658 30.7489 43.7778 30.7438C43.8094 30.7325 43.8403 30.723 43.8719 30.7106C43.8804 30.7106 43.8888 30.7028 43.898 30.701C43.9169 30.693 43.9366 30.6869 43.9556 30.6785C43.9626 30.6729 43.9711 30.6723 43.9802 30.6694C44.0463 30.6418 44.1144 30.6136 44.1826 30.5828H44.1897C44.2867 30.54 44.3851 30.492 44.4829 30.4421C47.6157 28.6892 49.1973 22.7999 54.1148 14.0026H52.7413L52.7429 14.002Z" fill="url(#paint14_linear_3398_4461)"/>
<path d="M25.5483 14.3885C25.5561 14.3885 25.5631 14.3885 25.5708 14.394C25.5898 14.394 25.6088 14.394 25.6278 14.4002H25.6468C25.6812 14.4057 25.7157 14.4087 25.7508 14.4137C25.7572 14.4137 25.7628 14.4137 25.7683 14.4193C25.7971 14.4248 25.8267 14.4295 25.8562 14.4339C25.8626 14.4339 25.871 14.4395 25.878 14.4395C25.9455 14.453 26.0144 14.4671 26.0805 14.4845C26.0867 14.4845 26.0931 14.4901 26.0987 14.4901C26.1269 14.4968 26.1522 14.5053 26.1803 14.5132C26.1888 14.5132 26.195 14.5188 26.2028 14.52C26.2358 14.5285 26.2667 14.5369 26.2991 14.5476C26.3005 14.5476 26.3024 14.5476 26.3062 14.5532C26.3335 14.5616 26.3617 14.5724 26.3905 14.5819C26.4018 14.5875 26.4123 14.5899 26.4228 14.5927C26.4425 14.6012 26.4643 14.6095 26.4833 14.6174C26.4946 14.6174 26.5058 14.6253 26.5177 14.6293C26.5437 14.6411 26.5711 14.6518 26.5978 14.6631C26.6119 14.6687 26.6238 14.6749 26.6372 14.68C26.6527 14.6879 26.6688 14.6952 26.6857 14.7008C26.6997 14.7075 26.7152 14.7149 26.7285 14.7211C26.7433 14.729 26.7573 14.7352 26.7714 14.743C27.1201 14.9148 27.4413 15.1436 27.7386 15.421C27.8483 15.3055 27.9629 15.202 28.0817 15.1091C27.4315 14.6473 26.6948 14.384 25.845 14.384C25.7466 14.384 25.6482 14.3896 25.5484 14.397" fill="#7DCBEC"/>
<path d="M27.7388 15.4128C27.9208 15.5825 28.0951 15.7719 28.2603 15.976C28.4199 15.8648 28.578 15.7578 28.7369 15.6578C28.5288 15.4494 28.3095 15.2622 28.0811 15.101C27.9623 15.1932 27.8484 15.2974 27.7388 15.4128Z" fill="#5EC5ED"/>
<path d="M25.5481 14.3884C25.6479 14.38 25.7463 14.3765 25.8447 14.3765C26.6945 14.3765 27.4312 14.6397 28.0814 15.1008C28.7674 14.5588 29.5968 14.3694 30.7489 14.3694H25.1699C25.2986 14.3694 25.4244 14.3772 25.5481 14.3884Z" fill="url(#paint15_linear_3398_4461)"/>
<path d="M30.7488 14.3694C29.5968 14.3694 28.7673 14.5587 28.0813 15.1008C28.309 15.262 28.5283 15.4492 28.7364 15.6576C29.6917 15.0494 30.6378 14.6467 31.5705 14.4707C31.9262 14.4039 32.2812 14.3694 32.6312 14.3694H30.7488Z" fill="url(#paint16_linear_3398_4461)"/>
<path d="M44.4241 24.2198C44.9196 22.6894 45.4868 20.8317 46.1904 18.5783C46.8245 16.5481 47.947 15.0303 50.055 14.3679C50.1107 14.2546 50.1633 14.1377 50.2174 14.0229C46.7809 14.2292 45.1748 15.9799 44.3664 18.5726C42.9529 23.099 42.0967 26.0331 41.2722 27.9028C42.3252 26.8948 43.3781 25.6572 44.4241 24.2198Z" fill="url(#paint17_linear_3398_4461)"/>
<path d="M49.4657 29.7855H49.0763V30.9977H48.9174V29.7855H48.5266V29.6412H49.4657V29.7855Z" fill="black"/>
<path d="M51.0601 30.9975H50.902V30.0866C50.902 30.0148 50.9075 29.9268 50.9149 29.8233C50.8986 29.8852 50.8851 29.9282 50.8727 29.9556L50.4116 30.9975H50.3343L49.8718 29.9634C49.8583 29.9347 49.8448 29.8881 49.8302 29.8233H49.8246C49.8302 29.8779 49.832 29.9662 49.832 30.0887V30.9975H49.6802V29.641H49.8896L50.305 30.5878C50.3365 30.6589 50.3562 30.7138 50.3662 30.7504H50.3723C50.3999 30.6758 50.4224 30.6202 50.4377 30.5835L50.8616 29.641H51.0612V30.9975H51.0601Z" fill="black"/>
</g>
<defs>
<linearGradient id="paint0_linear_3398_4461" x1="420.269" y1="-256.239" x2="420.269" y2="1831.78" gradientUnits="userSpaceOnUse">
<stop stop-color="#0994DC"/>
<stop offset="0.350006" stop-color="#66CEF5"/>
<stop offset="0.846161" stop-color="#127BCA"/>
<stop offset="1" stop-color="#127BCA"/>
</linearGradient>
<linearGradient id="paint1_linear_3398_4461" x1="440.332" y1="-263.665" x2="440.332" y2="1877.57" gradientUnits="userSpaceOnUse">
<stop stop-color="#0E76BC"/>
<stop offset="0.360001" stop-color="#36AEE8"/>
<stop offset="0.846161" stop-color="#00ADEF"/>
<stop offset="1" stop-color="#00ADEF"/>
</linearGradient>
<linearGradient id="paint2_linear_3398_4461" x1="424.054" y1="1627.74" x2="424.054" y2="-76.0062" gradientUnits="userSpaceOnUse">
<stop stop-color="#1C63B7"/>
<stop offset="0.5" stop-color="#33BDF2"/>
<stop offset="1" stop-color="#33BDF2" stop-opacity="0.419608"/>
</linearGradient>
<linearGradient id="paint3_linear_3398_4461" x1="419.192" y1="-276.426" x2="419.192" y2="1946.73" gradientUnits="userSpaceOnUse">
<stop stop-color="#166AB8"/>
<stop offset="0.399994" stop-color="#36AEE8"/>
<stop offset="0.846161" stop-color="#0798DD"/>
<stop offset="1" stop-color="#0798DD"/>
</linearGradient>
<linearGradient id="paint4_linear_3398_4461" x1="530.917" y1="-294.643" x2="530.917" y2="2069.39" gradientUnits="userSpaceOnUse">
<stop stop-color="#124379"/>
<stop offset="0.389999" stop-color="#1487CB"/>
<stop offset="0.780228" stop-color="#165197"/>
<stop offset="1" stop-color="#165197"/>
</linearGradient>
<linearGradient id="paint5_linear_3398_4461" x1="25.0135" y1="282.407" x2="358.753" y2="282.407" gradientUnits="userSpaceOnUse">
<stop stop-color="#33BDF2" stop-opacity="0.698039"/>
<stop offset="1" stop-color="#1DACD8"/>
</linearGradient>
<linearGradient id="paint6_linear_3398_4461" x1="723.536" y1="1622.31" x2="723.536" y2="-37.3746" gradientUnits="userSpaceOnUse">
<stop stop-color="#136AB4"/>
<stop offset="0.6" stop-color="#59CAF5" stop-opacity="0.54902"/>
<stop offset="1" stop-color="#59CAF5" stop-opacity="0.235294"/>
</linearGradient>
<linearGradient id="paint7_linear_3398_4461" x1="13.16" y1="867.798" x2="1251.05" y2="867.798" gradientUnits="userSpaceOnUse">
<stop stop-color="#05A1E6" stop-opacity="0.247059"/>
<stop offset="1" stop-color="#05A1E6"/>
</linearGradient>
<linearGradient id="paint8_linear_3398_4461" x1="437.329" y1="1594.37" x2="437.329" y2="-105.014" gradientUnits="userSpaceOnUse">
<stop stop-color="#318ED5"/>
<stop offset="1" stop-color="#38A7E4"/>
</linearGradient>
<linearGradient id="paint9_linear_3398_4461" x1="409.069" y1="918.414" x2="409.069" y2="-733.482" gradientUnits="userSpaceOnUse">
<stop stop-color="#05A1E6"/>
<stop offset="1" stop-color="#05A1E6" stop-opacity="0.54902"/>
</linearGradient>
<linearGradient id="paint10_linear_3398_4461" x1="468.804" y1="1413.46" x2="468.804" y2="17.5859" gradientUnits="userSpaceOnUse">
<stop stop-color="#1959A6"/>
<stop offset="0.5" stop-color="#05A1E6"/>
<stop offset="0.917587" stop-color="#7EC5EA"/>
<stop offset="1" stop-color="#7EC5EA"/>
</linearGradient>
<linearGradient id="paint11_linear_3398_4461" x1="762.077" y1="1626" x2="288.342" y2="180.393" gradientUnits="userSpaceOnUse">
<stop stop-color="#165096"/>
<stop offset="1" stop-color="#0D82CA"/>
</linearGradient>
<linearGradient id="paint12_linear_3398_4461" x1="325.98" y1="772.83" x2="325.98" y2="-18.1278" gradientUnits="userSpaceOnUse">
<stop stop-color="#05A1E6"/>
<stop offset="0.873627" stop-color="#0495D6"/>
<stop offset="1" stop-color="#0495D6"/>
</linearGradient>
<linearGradient id="paint13_linear_3398_4461" x1="720.236" y1="-54.9955" x2="-17.6642" y2="1580.92" gradientUnits="userSpaceOnUse">
<stop stop-color="#38A7E4" stop-opacity="0.329412"/>
<stop offset="0.961533" stop-color="#0E88D3"/>
<stop offset="1" stop-color="#0E88D3"/>
</linearGradient>
<linearGradient id="paint14_linear_3398_4461" x1="646.219" y1="9.00693" x2="646.219" y2="1734.57" gradientUnits="userSpaceOnUse">
<stop stop-color="#168CD4"/>
<stop offset="0.5" stop-color="#1C87CC"/>
<stop offset="1" stop-color="#154B8D"/>
</linearGradient>
<linearGradient id="paint15_linear_3398_4461" x1="118.193" y1="-135.251" x2="125.681" y2="45.7211" gradientUnits="userSpaceOnUse">
<stop stop-color="#97D6EE"/>
<stop offset="0.703293" stop-color="#55C1EA"/>
<stop offset="1" stop-color="#55C1EA"/>
</linearGradient>
<linearGradient id="paint16_linear_3398_4461" x1="59.4309" y1="7.54122" x2="93.2766" y2="-184.142" gradientUnits="userSpaceOnUse">
<stop stop-color="#7ACCEC"/>
<stop offset="1" stop-color="#3FB7ED"/>
</linearGradient>
<linearGradient id="paint17_linear_3398_4461" x1="488.503" y1="102.338" x2="488.503" y2="1790.11" gradientUnits="userSpaceOnUse">
<stop stop-color="#1DA7E7"/>
<stop offset="1" stop-color="#37ABE7" stop-opacity="0"/>
</linearGradient>
<clipPath id="clip0_3398_4461">
<rect width="44" height="42" fill="white" transform="translate(13 14)"/>
</clipPath>
</defs>
</svg>
