<svg width="306" height="209" viewBox="0 0 306 209" fill="none" xmlns="http://www.w3.org/2000/svg">
<rect x="53" y="30" width="200" height="120.216" rx="16" fill="#FAF9F6"/>
<path d="M243.836 150.216H62.1644C59.7347 150.213 57.4053 149.247 55.6872 147.528C53.9691 145.81 53.0027 143.481 53 141.051V39.1644C53.0027 36.7347 53.9691 34.4053 55.6872 32.6872C57.4053 30.9691 59.7347 30.0027 62.1644 30H243.836C246.265 30.0027 248.595 30.9691 250.313 32.6872C252.031 34.4053 252.997 36.7347 253 39.1644V141.051C252.997 143.481 252.031 145.81 250.313 147.528C248.595 149.246 246.265 150.213 243.836 150.216ZM62.1644 31.0782C60.0206 31.0806 57.9652 31.9333 56.4493 33.4493C54.9333 34.9652 54.0806 37.0206 54.0782 39.1644V141.051C54.0806 143.195 54.9333 145.25 56.4493 146.766C57.9652 148.282 60.0206 149.135 62.1644 149.137H243.836C245.979 149.135 248.035 148.282 249.551 146.766C251.067 145.25 251.919 143.195 251.922 141.051V39.1644C251.919 37.0206 251.067 34.9652 249.551 33.4493C248.035 31.9333 245.979 31.0806 243.836 31.0782H62.1644Z" fill="#CACCCC"/>
<path d="M197.798 70.6H162.758C162.114 70.6 161.497 70.8556 161.042 71.3105C160.587 71.7655 160.332 72.3825 160.332 73.0259C160.332 73.6693 160.587 74.2863 161.042 74.7412C161.497 75.1962 162.114 75.4518 162.758 75.4518H197.798C198.441 75.4518 199.058 75.1962 199.513 74.7412C199.968 74.2863 200.224 73.6693 200.224 73.0259C200.224 72.3825 199.968 71.7655 199.513 71.3105C199.058 70.8556 198.441 70.6 197.798 70.6Z" fill="#3F3D56"/>
<path d="M231.954 85.9639H162.294C161.21 85.9639 160.332 87.0528 160.332 88.3898C160.332 89.7267 161.21 90.8156 162.294 90.8156H231.954C233.038 90.8156 233.917 89.7267 233.917 88.3898C233.917 87.0528 233.038 85.9639 231.954 85.9639Z" fill="#3F3D56"/>
<path d="M231.954 101.698H162.294C161.21 101.698 160.332 102.787 160.332 104.124C160.332 105.461 161.21 106.55 162.294 106.55H231.954C233.038 106.55 233.917 105.461 233.917 104.124C233.917 102.787 233.038 101.698 231.954 101.698Z" fill="#3F3D56"/>
<g clip-path="url(#clip0_3352_93058)">
<path d="M106.472 99.7147C112.899 99.7147 118.109 94.5045 118.109 88.0774C118.109 81.6503 112.899 76.4401 106.472 76.4401C100.045 76.4401 94.8344 81.6503 94.8344 88.0774C94.8344 94.5045 100.045 99.7147 106.472 99.7147Z" fill="#FFB6B6"/>
<path d="M99.7912 101.436L99.2655 96.1211L109.764 94.158L115.964 109.252L105.182 121.651L97.5001 106.557L99.7912 101.436Z" fill="#FFB6B6"/>
<path d="M99.0968 98.7813L101.392 99.2999C101.392 99.2999 99.5878 93.5783 100.2 93.032C100.813 92.4858 102.313 93.3465 102.313 93.3465L103.89 95.1147L105.812 93.1588C105.812 93.1588 107.897 90.5656 108.714 89.8372C109.53 89.1089 108.219 86.4055 108.219 86.4055C108.219 86.4055 120.333 83.1387 115.825 77.2627C115.825 77.2627 113.183 72.6556 112.322 74.1564C111.461 75.6571 110.435 73.2736 110.435 73.2736L107.301 73.8696C107.301 73.8696 101.116 70.2226 95.2452 78.0245C89.3747 85.8264 99.0968 98.7813 99.0968 98.7813Z" fill="#2F2E41"/>
<path d="M128.359 116.651C121.999 121.807 114.131 124.609 105.83 124.609C98.2508 124.609 91.0311 122.272 84.9921 117.941C85.0028 117.828 85.0136 117.716 85.0231 117.604C85.1834 115.852 85.3263 114.148 85.4206 112.736C85.7859 107.252 98.5797 103.597 98.5797 103.597C98.5797 103.597 98.6376 103.655 98.7535 103.756C99.4597 104.376 102.326 106.624 107.353 107.252C111.836 107.813 113.311 105.154 113.758 103.88C113.892 103.492 113.933 103.232 113.933 103.232L127.092 109.446C127.95 110.673 128.286 113.314 128.352 116.283C128.355 116.406 128.357 116.527 128.359 116.651Z" fill="#00756A"/>
<path d="M131.179 63.4111C124.408 56.6402 115.406 52.9111 105.83 52.9111C96.2548 52.9111 87.2521 56.6402 80.4812 63.4111C73.7103 70.1819 69.9812 79.1846 69.9812 88.7601C69.9812 97.5 73.0877 105.763 78.7804 112.287C79.3235 112.911 79.8909 113.519 80.4812 114.109C80.62 114.248 80.7602 114.387 80.9017 114.522C81.279 114.887 81.6631 115.244 82.054 115.59C82.2912 115.802 82.5311 116.009 82.7737 116.213C82.9637 116.373 83.1537 116.531 83.3464 116.686C83.3505 116.69 83.3532 116.693 83.3572 116.695C83.8923 117.127 84.4367 117.542 84.992 117.941C91.0311 122.272 98.2507 124.609 105.83 124.609C114.131 124.609 121.999 121.807 128.359 116.651C128.877 116.23 129.386 115.794 129.884 115.342C130.325 114.943 130.756 114.532 131.179 114.109C131.313 113.976 131.446 113.841 131.577 113.705C131.941 113.33 132.294 112.949 132.639 112.562C138.484 105.996 141.679 97.624 141.679 88.7601C141.679 79.1846 137.95 70.1819 131.179 63.4111ZM132.551 112.226C132.214 112.609 131.869 112.987 131.516 113.354C130.966 113.927 130.399 114.482 129.813 115.018C129.59 115.222 129.365 115.422 129.138 115.62C128.879 115.845 128.617 116.066 128.352 116.283C126.259 118.001 123.966 119.484 121.515 120.691C120.546 121.17 119.553 121.605 118.536 121.995C114.589 123.509 110.305 124.34 105.83 124.34C101.512 124.34 97.372 123.566 93.5405 122.151C91.9677 121.571 90.4475 120.883 88.9879 120.094C88.7737 119.978 88.5607 119.861 88.3491 119.741C87.2359 119.111 86.1591 118.422 85.1254 117.678C85.0917 117.654 85.0567 117.628 85.023 117.604C84.2871 117.073 83.5715 116.513 82.8801 115.926C82.6268 115.712 82.3761 115.495 82.1295 115.272C81.7278 114.915 81.3343 114.547 80.9502 114.17C80.2224 113.457 79.527 112.714 78.8626 111.942C73.4974 105.71 70.2507 97.6078 70.2507 88.7601C70.2507 69.1415 86.2117 53.1806 105.83 53.1806C125.449 53.1806 141.41 69.1415 141.41 88.7601C141.41 97.7439 138.063 105.96 132.551 112.226Z" fill="#3F3D56"/>
</g>
<defs>
<clipPath id="clip0_3352_93058">
<rect width="71.6981" height="71.6981" fill="white" transform="translate(69.9812 52.9111)"/>
</clipPath>
</defs>
</svg>
