<svg width="40" height="41" viewBox="0 0 40 41" fill="none" xmlns="http://www.w3.org/2000/svg">
<rect y="0.5" width="40" height="40" rx="20" fill="white" fill-opacity="0.1"/>
<path fill-rule="evenodd" clip-rule="evenodd" d="M19.9933 12.5C17.8218 12.5 17.5487 12.5 16.6961 12.5467C15.8501 12.5868 15.2639 12.7203 14.7644 12.9205C14.2315 13.1208 13.7785 13.4011 13.3322 13.835C12.9059 14.3023 12.6328 14.7428 12.4263 15.2701C12.2265 15.7774 12.0933 16.3648 12.0533 17.2059C12 18.0736 12 18.3406 12 20.51C12 22.6794 12 22.9597 12.0466 23.8141C12.0866 24.6619 12.2198 25.2493 12.4197 25.7499C12.6195 26.2839 12.8993 26.7311 13.3389 27.1783C13.8052 27.5922 14.2581 27.8659 14.7843 28.0728C15.2906 28.2731 15.8768 28.4066 16.7161 28.4466C17.582 28.4933 17.8485 28.5 20.02 28.5C22.1915 28.5 22.4713 28.5 23.3239 28.4466C24.1632 28.4066 24.7494 28.2731 25.2556 28.0728C25.7885 27.8726 26.2281 27.5922 26.6744 27.1516C27.1074 26.6977 27.3805 26.2505 27.587 25.7232C27.7868 25.2159 27.9201 24.6285 27.9534 23.7874C27.9933 22.9197 28 22.6527 28 20.4766C28 18.3006 28 18.0269 27.9534 17.1725C27.9134 16.3381 27.7802 15.7507 27.5803 15.2368C27.3805 14.7028 27.0874 14.2689 26.6478 13.8217C26.1882 13.3678 25.7552 13.1008 25.229 12.9005C24.7227 12.7003 24.1366 12.5668 23.2973 12.52C22.438 12.5 22.1715 12.5 19.9933 12.5ZM19.992 13.9414C22.1236 13.9414 22.3767 13.9414 23.2227 13.9881C24.002 14.0282 24.4217 14.155 24.7081 14.2685C25.0811 14.402 25.3476 14.5822 25.6273 14.8692C25.9071 15.1362 26.0803 15.4032 26.2268 15.7837C26.3334 16.0707 26.46 16.4913 26.4933 17.2722C26.5399 18.12 26.5466 18.3736 26.5466 20.5096C26.5466 22.6456 26.5466 22.8993 26.4999 23.747C26.46 24.528 26.3334 24.9485 26.2202 25.2355C26.087 25.6093 25.9071 25.8763 25.6207 26.1567C25.3542 26.437 25.0878 26.6106 24.7081 26.7574C24.4217 26.8642 24.002 26.9911 23.2227 27.0244C22.3767 27.0712 22.1236 27.0778 19.992 27.0778C17.8605 27.0778 17.6074 27.0778 16.7614 27.0311C15.982 26.9911 15.5624 26.8642 15.276 26.7508C14.9029 26.6173 14.6365 26.437 14.3567 26.15C14.077 25.883 13.9038 25.616 13.7572 25.2355C13.6507 24.9485 13.5241 24.528 13.4908 23.747C13.4442 22.8993 13.4375 22.6456 13.4375 20.5096C13.4375 18.3736 13.4375 18.12 13.4841 17.2722C13.5241 16.4913 13.6507 16.0707 13.7639 15.7837C13.8971 15.4099 14.077 15.1429 14.3634 14.8626C14.6298 14.5822 14.8963 14.4087 15.276 14.2618C15.5624 14.155 15.982 14.0282 16.7614 13.9948C17.6074 13.9481 17.8605 13.9414 19.992 13.9414ZM15.8906 20.5102C15.8906 18.2407 17.7291 16.3984 19.9939 16.3984C22.2587 16.3984 24.0971 18.2407 24.0971 20.5102C24.0971 22.7797 22.2587 24.6221 19.9939 24.6221C17.7291 24.6221 15.8906 22.7797 15.8906 20.5102ZM19.9926 23.1799C18.5271 23.1799 17.3281 21.9784 17.3281 20.5098C17.3281 19.0413 18.5271 17.8398 19.9926 17.8398C21.458 17.8398 22.657 19.0413 22.657 20.5098C22.657 21.9784 21.458 23.1799 19.9926 23.1799ZM24.2607 17.1913C24.7869 17.1913 25.2199 16.7708 25.2199 16.2368L25.2532 16.2034C25.2532 15.6761 24.8202 15.2422 24.2873 15.2422C23.7544 15.2422 23.3281 15.6961 23.3281 16.2301C23.3281 16.7641 23.7278 17.1913 24.2607 17.1913Z" fill="white"/>
</svg>
