<svg width="24" height="25" viewBox="0 0 24 25" fill="none" xmlns="http://www.w3.org/2000/svg">
<path fill-rule="evenodd" clip-rule="evenodd" d="M3.25 10.6433C3.25 5.74427 7.15501 1.75 12 1.75C16.845 1.75 20.75 5.74427 20.75 10.6433C20.75 13.0084 20.076 15.5479 18.8844 17.7419C17.6944 19.9331 15.9556 21.8372 13.7805 22.8539C12.6506 23.382 11.3494 23.382 10.2195 22.8539C8.04437 21.8372 6.30562 19.9331 5.11556 17.7419C3.92403 15.5479 3.25 13.0084 3.25 10.6433ZM12 3.25C8.00843 3.25 4.75 6.54748 4.75 10.6433C4.75 12.7404 5.35263 15.0354 6.4337 17.026C7.51624 19.0192 9.04602 20.6496 10.8546 21.495C11.5821 21.835 12.4179 21.835 13.1454 21.495C14.954 20.6496 16.4838 19.0192 17.5663 17.026C18.6474 15.0354 19.25 12.7404 19.25 10.6433C19.25 6.54748 15.9916 3.25 12 3.25ZM12 8.25C10.7574 8.25 9.75 9.25736 9.75 10.5C9.75 11.7426 10.7574 12.75 12 12.75C13.2426 12.75 14.25 11.7426 14.25 10.5C14.25 9.25736 13.2426 8.25 12 8.25ZM8.25 10.5C8.25 8.42893 9.92893 6.75 12 6.75C14.0711 6.75 15.75 8.42893 15.75 10.5C15.75 12.5711 14.0711 14.25 12 14.25C9.92893 14.25 8.25 12.5711 8.25 10.5Z" fill="#B7BBBF"/>
</svg>
