<svg width="158" height="32" viewBox="0 0 158 32" fill="none" xmlns="http://www.w3.org/2000/svg">
<path d="M48.2535 27.2392C46.4388 28.7745 44.1273 29.7346 41.7449 29.9445C41.417 29.9731 41.1736 30.2637 41.2034 30.5916C41.222 30.7978 41.3425 30.9705 41.5127 31.0636C41.612 31.1183 41.7288 31.1444 41.8505 31.1344C44.4751 30.9034 47.0238 29.8439 49.0248 28.1509C49.277 27.9385 49.308 27.5622 49.0956 27.31C48.8832 27.0591 48.5069 27.0268 48.2547 27.2392H48.2535Z" fill="#00756A"/>
<path d="M38.7484 29.819C37.5101 29.6028 36.3189 29.1868 35.2097 28.5806C33.9527 27.8937 32.8498 26.9932 31.9319 25.9027C31.7195 25.6505 31.3431 25.6182 31.091 25.8306C30.8388 26.043 30.8065 26.4194 31.0189 26.6715C32.0325 27.8751 33.2509 28.87 34.6371 29.6277C35.8618 30.2972 37.176 30.7568 38.5435 30.9952C38.8677 31.0524 39.177 30.835 39.2341 30.5096C39.2912 30.1841 39.0726 29.8749 38.7484 29.819Z" fill="#00756A"/>
<path d="M29.3169 16.7053C29.3654 16.3786 29.1393 16.0755 28.8139 16.0283C28.4872 15.9799 28.1841 16.2059 28.1369 16.5314C27.7805 18.946 28.1233 21.4091 29.1269 23.6535C29.1828 23.7777 29.2747 23.8734 29.3852 23.933C29.543 24.0199 29.738 24.0336 29.9156 23.9541C30.2162 23.82 30.3516 23.4672 30.2162 23.1654C29.3045 21.1296 28.994 18.8951 29.3169 16.7053Z" fill="#00756A"/>
<path d="M37.4504 3.70089C37.7336 3.53321 37.8267 3.16679 37.6591 2.88359C37.4914 2.60039 37.125 2.50724 36.8418 2.67492C34.8817 3.83752 33.2683 5.50812 32.1752 7.50789L29.5557 12.3011C29.2663 12.8303 29.0129 13.3842 28.8017 13.9469C28.6961 14.2288 28.8179 14.5394 29.0737 14.6797C29.0986 14.6934 29.1247 14.7046 29.152 14.7157C29.46 14.8313 29.8041 14.6748 29.9196 14.3667C30.1109 13.8562 30.3407 13.3544 30.6027 12.8737L33.2223 8.0805C34.2123 6.26953 35.6742 4.75542 37.4504 3.70213V3.70089Z" fill="#00756A"/>
<path d="M38.7433 2.80235C38.8911 2.88308 39.0725 2.90172 39.2426 2.83588C42.1529 1.72421 45.304 1.80743 48.1161 3.06816C48.4167 3.20354 48.7695 3.06816 48.9049 2.76757C49.039 2.46699 48.9049 2.11423 48.6043 1.97885C45.5003 0.586463 42.0249 0.494546 38.8166 1.72049C38.5086 1.83849 38.3546 2.18255 38.4725 2.49059C38.5247 2.62846 38.6241 2.73528 38.7433 2.80111V2.80235Z" fill="#00756A"/>
<path d="M48.457 5.8228C48.262 6.0886 48.3191 6.46124 48.5849 6.65749C49.9848 7.68594 51.0629 9.09198 51.7026 10.7253C51.756 10.8607 51.8529 10.9663 51.9721 11.0309C52.1212 11.1129 52.305 11.1302 52.4764 11.0632C52.7832 10.9427 52.9347 10.5974 52.8143 10.2906C52.0926 8.4461 50.8754 6.85746 49.2917 5.69487C49.0259 5.49986 48.652 5.55699 48.4583 5.8228H48.457Z" fill="#00756A"/>
<path d="M43.3702 27.7138C43.3019 27.3921 42.9852 27.1859 42.6635 27.2529C40.9158 27.6231 39.1148 27.4778 37.4516 26.8344C37.1448 26.7151 36.7983 26.8679 36.6803 27.1759C36.5611 27.4827 36.7138 27.8293 37.0219 27.9473C38.9012 28.6739 40.9369 28.8378 42.9106 28.4205C43.2323 28.3522 43.4385 28.0355 43.3714 27.7138H43.3702Z" fill="#00756A"/>
<path d="M31.6391 20.9073C31.331 21.0253 31.177 21.3694 31.2938 21.6774C31.7819 22.9592 32.5036 24.1131 33.4364 25.1068C33.4811 25.154 33.5308 25.1925 33.5854 25.2223C33.8053 25.3428 34.0872 25.3142 34.2798 25.1329C34.5195 24.9068 34.5319 24.5292 34.3058 24.2895C33.4799 23.4101 32.8414 22.3891 32.4092 21.2526C32.2924 20.9446 31.9471 20.7905 31.6391 20.9073Z" fill="#00756A"/>
<path d="M50.3633 2.94135C50.0888 2.76249 49.7174 2.83825 49.5373 3.11399C49.3572 3.38974 49.4343 3.75988 49.7112 3.93999C54.7343 7.22035 56.4148 13.9152 53.5369 19.1804L51.0316 23.765L50.9173 23.9737C50.8192 24.1538 50.7136 24.3351 50.6043 24.5115C50.5956 24.5252 50.5906 24.5413 50.5832 24.555C50.408 24.7549 50.1124 24.8158 49.8702 24.6829C49.5895 24.5301 49.4864 24.1774 49.6392 23.8967L49.9125 23.3961L52.2675 19.086C53.2164 17.3484 53.6474 15.3846 53.512 13.406C53.4897 13.0768 53.2052 12.8284 52.8761 12.852C52.5469 12.8743 52.2985 13.1588 52.3221 13.4879C52.4413 15.2393 52.0613 16.977 51.2204 18.5147L48.8654 22.8247L48.5921 23.3253L48.5399 23.4209C48.5151 23.4656 48.499 23.5128 48.4878 23.5613C48.1872 24.3724 48.5163 25.3052 49.2976 25.7312C50.1547 26.1995 51.234 25.884 51.7023 25.0257L51.9644 24.5463L52.0787 24.3376L54.584 19.753C57.7587 13.945 55.9043 6.55956 50.3633 2.94135Z" fill="#00756A"/>
<path d="M31.6535 19.6786C31.9193 19.8239 32.2187 19.9047 32.5304 19.9109C33.0409 19.9208 33.5254 19.732 33.893 19.3793C34.242 19.0439 34.4457 18.5992 34.4756 18.1198C34.4756 18.1136 34.4756 18.1061 34.4768 18.0999C34.4768 18.08 34.4805 18.0589 34.4805 18.039C34.4805 18.0279 34.478 18.0179 34.478 18.0068C34.478 18.0018 34.478 17.9981 34.478 17.9931C34.334 16.7597 34.5464 15.5102 35.1426 14.4208L36.8989 11.2076C38.8179 7.6974 43.3739 6.52611 46.7723 8.80659C49.7421 10.7989 50.5967 14.7997 48.8813 17.9384L47.3498 20.7406C45.5997 23.9439 41.6548 25.191 38.3956 23.6545C38.0453 23.5912 37.741 23.7688 37.6516 24.0073C37.4603 24.519 37.854 24.7426 37.9273 24.76C41.7443 26.5325 46.3487 25.0581 48.3957 21.3132L50.0029 18.3719C52.2337 14.2904 50.5557 9.10593 46.2394 7.15088C42.4908 5.45294 37.7423 7.17199 35.7698 10.7828L34.242 13.5787C33.4968 14.9413 33.1676 16.479 33.2844 18.0291C33.2769 18.2167 33.1999 18.3906 33.0645 18.5197C32.9267 18.6526 32.7441 18.7234 32.5516 18.7197C32.3603 18.716 32.1814 18.6377 32.0473 18.4986C31.928 18.3744 31.8622 18.2142 31.8523 18.0453C31.8237 16.4566 32.21 14.8804 32.9714 13.4855L35.0854 9.61768C36.1089 7.7446 37.7708 6.27769 39.7656 5.48524C40.4351 5.21943 41.1356 5.03063 41.8486 4.92506C42.2361 4.86792 42.4808 4.45058 42.2945 4.06304C42.1815 3.82953 41.912 3.70905 41.6561 3.74756C40.8587 3.8668 40.0749 4.07795 39.3259 4.37605C37.074 5.27036 35.1972 6.92855 34.0408 9.04507L31.9268 12.9129C31.0896 14.4444 30.6574 16.1685 30.6623 17.9124C30.6611 17.9285 30.6561 17.9447 30.6561 17.962C30.6561 18.0117 30.6574 18.0614 30.6599 18.1098C30.6599 18.1161 30.6599 18.121 30.6599 18.1272C30.6599 18.1285 30.6599 18.131 30.6599 18.1322C30.6897 18.5794 30.8735 18.9979 31.1877 19.3246C31.3256 19.4687 31.4821 19.5879 31.6523 19.6798L31.6535 19.6786Z" fill="#00756A"/>
<path d="M44.9017 4.28174C44.6471 4.66803 44.7539 5.18722 45.1402 5.44184C45.5265 5.69647 46.0457 5.58966 46.3003 5.20337C46.5549 4.81708 46.4481 4.29789 46.0618 4.04326C45.6755 3.78863 45.1563 3.89545 44.9017 4.28174Z" fill="#00756A"/>
<path d="M45.7395 26.0356C45.4849 26.4219 45.5917 26.9411 45.978 27.1958C46.3643 27.4504 46.8835 27.3436 47.1381 26.9573C47.3928 26.571 47.286 26.0518 46.8997 25.7972C46.5134 25.5425 45.9942 25.6494 45.7395 26.0356Z" fill="#00756A"/>
<path d="M43.9646 10.6958C44.3224 9.98528 45.1881 9.69835 45.8986 10.0561C46.6091 10.4138 46.896 11.2795 46.5383 11.99C46.1805 12.7005 45.3148 12.9874 44.6043 12.6297C43.8938 12.272 43.6069 11.4062 43.9646 10.6958Z" fill="#00756A"/>
<path d="M47.4074 12.9168C47.7676 13.6583 47.8745 14.4781 47.7155 15.2891C47.6024 15.8642 47.4012 16.3151 47.1031 16.7002C46.928 16.9647 46.7193 17.2082 46.4784 17.4255C46.2088 17.6665 45.7803 17.6181 45.5778 17.2988C45.4251 17.0604 45.4772 16.7498 45.676 16.5499C45.748 16.4778 45.8213 16.4058 45.8921 16.3325C45.9467 16.2741 46.0002 16.2133 46.0498 16.1499C46.056 16.1425 46.061 16.1338 46.0672 16.1263C46.0921 16.094 46.1132 16.0592 46.1368 16.0257C46.3666 15.6456 46.5156 15.2432 46.579 14.847C46.6075 14.5998 46.6063 14.3414 46.5628 14.0707C46.5256 13.8446 46.4249 13.6359 46.3368 13.4248C46.2287 13.1652 46.2983 12.8584 46.5293 12.6944C46.8373 12.4758 47.2534 12.5926 47.4112 12.9168H47.4074Z" fill="#00756A"/>
<path d="M41.3882 18.1081C41.4553 18.4298 41.2479 18.7441 40.9262 18.8112C40.6045 18.8782 40.2902 18.6708 40.2231 18.3491C40.197 18.2249 40.0617 17.7765 39.9312 17.3443C39.5002 15.9196 39.14 14.6924 39.0966 14.1049C39.0494 13.4664 39.0792 12.6144 39.7226 11.6816C40.0381 11.2257 40.4393 10.8655 40.8864 10.5972C40.9398 10.5637 40.9932 10.5376 41.0466 10.5078C41.1075 10.4755 41.1659 10.4407 41.228 10.4109C41.3298 10.3625 41.4317 10.324 41.5348 10.2879C41.8118 10.1873 42.0987 10.1215 42.3893 10.0867C42.4154 10.083 42.4427 10.0793 42.4688 10.0768C42.5384 10.0706 42.6092 10.0656 42.6787 10.0631C42.7558 10.0582 42.8315 10.0482 42.9098 10.0482C42.9532 10.0482 42.9942 10.0532 43.0352 10.0619C43.0389 10.0619 43.0439 10.0619 43.0476 10.0619C43.0837 10.0644 43.116 10.078 43.142 10.0967C43.383 10.1985 43.5445 10.4544 43.4973 10.7425C43.4513 11.022 43.2066 11.2183 42.9259 11.2357C42.8241 11.2419 42.721 11.2456 42.6204 11.2543C42.5409 11.2617 42.4626 11.2704 42.3844 11.2853C42.3819 11.2853 42.3794 11.2853 42.3782 11.2866C42.3695 11.2878 42.362 11.2903 42.3533 11.2928C42.3136 11.3002 42.2738 11.3127 42.2341 11.3214C41.8093 11.4505 41.4304 11.653 41.1199 11.9051C40.9336 12.0703 40.7622 12.2641 40.6144 12.4951C40.4914 12.6889 40.4281 12.9112 40.3523 13.1274C40.3461 13.1447 40.3386 13.1597 40.3312 13.1758C40.2629 13.4727 40.2616 13.7521 40.2815 14.0167C40.3188 14.5222 40.787 16.0724 41.0678 16.999C41.2479 17.5939 41.351 17.938 41.3857 18.1069L41.3882 18.1081Z" fill="#00756A"/>
<path d="M37.4519 20.3795C37.8121 19.6703 38.6791 19.3871 39.3883 19.7473C40.0976 20.1075 40.3808 20.9745 40.0206 21.6837C39.6604 22.3929 38.7934 22.6761 38.0841 22.3159C37.3749 21.9557 37.0917 21.0887 37.4519 20.3795Z" fill="#00756A"/>
<path d="M37.8539 14.798C38.0315 15.0191 38.0129 15.3334 37.8378 15.5532C37.7744 15.6327 37.7086 15.7122 37.6465 15.7929C37.5981 15.8575 37.5521 15.9221 37.5099 15.9917C37.5049 16.0004 37.5012 16.0091 37.4962 16.0178C37.4751 16.0525 37.4577 16.0898 37.4378 16.1258C37.2503 16.5283 37.1459 16.9444 37.1261 17.3443C37.1236 17.5927 37.1534 17.8498 37.2254 18.1144C37.2863 18.3355 37.4093 18.5318 37.5198 18.733C37.6552 18.9789 37.6192 19.2919 37.408 19.4795C37.1248 19.7304 36.6988 19.6596 36.5075 19.3528C36.069 18.6547 35.8753 17.8511 35.9461 17.0276C35.9958 16.4438 36.1485 15.9743 36.4032 15.5582C36.5485 15.2762 36.7298 15.0117 36.9472 14.7695C37.1882 14.4999 37.6204 14.5024 37.8564 14.798H37.8539Z" fill="#00756A"/>
<path d="M43.9789 21.2521C43.6584 21.7042 43.2535 22.0595 42.8026 22.3228C42.7492 22.3551 42.6946 22.3812 42.6411 22.4098C42.5803 22.4408 42.5207 22.4756 42.4586 22.5042C42.3567 22.5514 42.2536 22.5899 42.1505 22.6234C41.8723 22.7203 41.5854 22.7836 41.2935 22.8134C41.2674 22.8172 41.2401 22.8196 41.214 22.8234C41.1432 22.8296 41.0736 22.8333 41.0028 22.8345C40.9258 22.8383 40.8501 22.8482 40.7718 22.847C40.7283 22.847 40.6873 22.8408 40.6463 22.8321C40.6426 22.8321 40.6377 22.8321 40.6339 22.8321C40.5979 22.8296 40.5656 22.8159 40.5408 22.796C40.3011 22.6905 40.1433 22.4334 40.193 22.1464C40.2414 21.867 40.4898 21.6732 40.7706 21.6595C40.8724 21.6546 40.9755 21.6521 41.0774 21.6446C41.1569 21.6384 41.2351 21.6297 41.3146 21.6161C41.3171 21.6161 41.3196 21.6161 41.322 21.6161C41.3307 21.6148 41.3382 21.6123 41.3469 21.6111C41.3866 21.6036 41.4264 21.5925 41.4661 21.5838C41.8922 21.4596 42.2735 21.2621 42.5877 21.0124C42.7753 20.8497 42.9492 20.6584 43.0995 20.4286C43.2249 20.2361 43.2908 20.015 43.369 19.7989C43.3752 19.7815 43.3839 19.7666 43.3914 19.7504C43.4634 19.4548 43.4671 19.1753 43.451 18.9108C43.4199 18.4053 42.9691 16.8489 42.6995 15.9186C42.5269 15.3224 42.4275 14.9758 42.394 14.8069C42.3306 14.484 42.5418 14.1722 42.8635 14.1101C43.1852 14.0468 43.4982 14.2579 43.5603 14.5796C43.5851 14.7051 43.7143 15.1535 43.841 15.5882C44.2546 17.0178 44.6012 18.2488 44.6372 18.8375C44.6769 19.4759 44.6372 20.328 43.9826 21.2534L43.9789 21.2521Z" fill="#00756A"/>
<path d="M129.204 7.13635V24.6643H124.935V14.1525L121.015 24.6643H117.569L113.624 14.1275V24.6643H109.354V7.13635H114.398L119.317 19.2711L124.186 7.13635H129.204Z" fill="#FAF9F6"/>
<path d="M102.003 24.6643L98.3575 18.0476H97.3338V24.6643H93.0642V7.13635H100.23C101.612 7.13635 102.785 7.37772 103.751 7.86044C104.733 8.34317 105.465 9.00899 105.948 9.85792C106.431 10.6902 106.672 11.6224 106.672 12.6544C106.672 13.8196 106.339 14.86 105.673 15.7755C105.024 16.691 104.059 17.3402 102.777 17.723L106.822 24.6643H102.003ZM97.3338 15.0264H99.9805C100.763 15.0264 101.345 14.835 101.728 14.4521C102.128 14.0693 102.328 13.5283 102.328 12.8292C102.328 12.1634 102.128 11.639 101.728 11.2562C101.345 10.8733 100.763 10.6819 99.9805 10.6819H97.3338V15.0264Z" fill="#FAF9F6"/>
<path d="M89.9841 7.13635V24.6643H85.7145V17.4484H79.0728V24.6643H74.8032V7.13635H79.0728V14.0027H85.7145V7.13635H89.9841Z" fill="#FAF9F6"/>
<path d="M66.5491 24.8637C65.334 24.8637 64.252 24.6556 63.3032 24.2395C62.3544 23.8233 61.6053 23.2574 61.056 22.5416C60.5067 21.8092 60.1988 20.9936 60.1322 20.0947H64.3519C64.4018 20.5774 64.6265 20.9686 65.026 21.2682C65.4255 21.5678 65.9166 21.7177 66.4992 21.7177C67.0318 21.7177 67.4397 21.6178 67.7226 21.418C68.0223 21.2016 68.1721 20.927 68.1721 20.5941C68.1721 20.1946 67.964 19.9033 67.5479 19.7202C67.1317 19.5204 66.4576 19.304 65.5254 19.071C64.5267 18.8379 63.6944 18.5966 63.0286 18.3469C62.3627 18.0806 61.7885 17.6727 61.3057 17.1234C60.823 16.5575 60.5816 15.8001 60.5816 14.8513C60.5816 14.0523 60.798 13.3282 61.2308 12.679C61.6803 12.0132 62.3294 11.4889 63.1784 11.106C64.0439 10.7232 65.0677 10.5317 66.2495 10.5317C67.9973 10.5317 69.3706 10.9645 70.3693 11.8301C71.3847 12.6957 71.9673 13.8442 72.1171 15.2758H68.1721C68.1055 14.793 67.8891 14.4102 67.5229 14.1272C67.1733 13.8442 66.7073 13.7027 66.1247 13.7027C65.6253 13.7027 65.2424 13.8026 64.9761 14.0024C64.7098 14.1855 64.5766 14.4435 64.5766 14.7764C64.5766 15.1759 64.7847 15.4755 65.2008 15.6753C65.6336 15.875 66.2994 16.0748 67.1983 16.2745C68.2303 16.5408 69.0709 16.8072 69.7201 17.0735C70.3693 17.3232 70.9353 17.7393 71.418 18.3219C71.9174 18.8879 72.1754 19.6536 72.192 20.619C72.192 21.4347 71.959 22.1671 71.4929 22.8163C71.0435 23.4488 70.386 23.9482 69.5204 24.3144C68.6715 24.6806 67.681 24.8637 66.5491 24.8637Z" fill="#FAF9F6"/>
</svg>
