<svg width="158" height="158" viewBox="0 0 158 158" fill="none" xmlns="http://www.w3.org/2000/svg">
<rect width="158" height="158" rx="79" fill="#FAF9F6"/>
<path d="M103.014 123.957C95.7551 130.098 86.509 133.938 76.9797 134.778C75.668 134.892 74.6942 136.055 74.8135 137.367C74.888 138.191 75.3699 138.882 76.0506 139.255C76.4481 139.473 76.9151 139.578 77.402 139.538C87.9001 138.614 98.0952 134.376 106.099 127.604C107.108 126.754 107.232 125.249 106.382 124.24C105.533 123.237 104.027 123.107 103.019 123.957H103.014Z" fill="#00756A"/>
<path d="M64.9937 134.276C60.0402 133.412 55.2755 131.747 50.8388 129.323C45.8108 126.575 41.3989 122.973 37.7273 118.611C36.8777 117.602 35.3723 117.473 34.3637 118.323C33.3551 119.172 33.226 120.678 34.0755 121.686C38.1297 126.501 43.0037 130.48 48.5484 133.511C53.4472 136.189 58.7037 138.027 64.1739 138.981C65.4706 139.21 66.7077 138.34 66.9363 137.039C67.1648 135.737 66.2904 134.5 64.9937 134.276Z" fill="#00756A"/>
<path d="M27.2677 81.8209C27.4615 80.5143 26.5572 79.302 25.2555 79.1132C23.9488 78.9194 22.7365 79.8237 22.5477 81.1254C21.1218 90.7839 22.4931 100.636 26.5075 109.614C26.7311 110.111 27.0988 110.493 27.5409 110.732C28.1719 111.08 28.952 111.134 29.6624 110.816C30.8648 110.28 31.4063 108.869 30.8648 107.661C27.218 99.5182 25.9759 90.5802 27.2677 81.8209Z" fill="#00756A"/>
<path d="M59.8015 29.8037C60.9343 29.1329 61.307 27.6673 60.6362 26.5345C59.9655 25.4017 58.4998 25.0291 57.367 25.6998C49.527 30.3502 43.0731 37.0326 38.7009 45.0317L28.2226 64.2046C27.065 66.3211 26.0515 68.537 25.2068 70.7877C24.7845 71.9155 25.2714 73.1576 26.2949 73.719C26.3943 73.7737 26.4986 73.8184 26.6079 73.8631C27.8401 74.3252 29.2163 73.6991 29.6784 72.467C30.4435 70.425 31.3626 68.4178 32.411 66.495L42.8893 47.3221C46.849 40.0782 52.6968 34.0218 59.8015 29.8086V29.8037Z" fill="#00756A"/>
<path d="M64.9733 26.2095C65.5645 26.5324 66.2899 26.607 66.9706 26.3437C78.6115 21.897 91.2162 22.2299 102.465 27.2727C103.667 27.8143 105.078 27.2728 105.619 26.0704C106.156 24.8681 105.619 23.4571 104.417 22.9155C92.0012 17.346 78.0997 16.9783 65.2664 21.8821C64.0343 22.3541 63.4182 23.7303 63.8902 24.9625C64.0989 25.514 64.4963 25.9412 64.9733 26.2046V26.2095Z" fill="#00756A"/>
<path d="M103.828 38.2913C103.048 39.3545 103.277 40.8451 104.34 41.6301C109.939 45.7439 114.252 51.3681 116.81 57.9015C117.024 58.443 117.412 58.8653 117.888 59.1236C118.485 59.4516 119.22 59.5211 119.906 59.2528C121.133 58.7709 121.739 57.3897 121.257 56.1625C118.37 48.7845 113.501 42.43 107.167 37.7796C106.104 36.9996 104.608 37.2281 103.833 38.2913H103.828Z" fill="#00756A"/>
<path d="M83.4807 125.855C83.2074 124.568 81.9405 123.744 80.6537 124.012C73.6632 125.492 66.4591 124.911 59.8064 122.338C58.5792 121.861 57.1931 122.472 56.7211 123.704C56.2441 124.931 56.8552 126.317 58.0874 126.789C65.6045 129.696 73.7477 130.351 81.6424 128.682C82.9292 128.409 83.7539 127.142 83.4856 125.855H83.4807Z" fill="#00756A"/>
<path d="M36.5563 98.6293C35.3242 99.1013 34.7081 100.478 35.1751 101.71C37.1277 106.837 40.0143 111.453 43.7455 115.427C43.9244 115.616 44.1231 115.77 44.3417 115.889C45.2211 116.371 46.349 116.257 47.119 115.532C48.0779 114.627 48.1276 113.117 47.2234 112.158C43.9194 108.641 41.3657 104.557 39.6367 100.011C39.1697 98.7784 37.7885 98.1623 36.5563 98.6293Z" fill="#00756A"/>
<path d="M111.453 26.7655C110.355 26.0501 108.87 26.3531 108.149 27.4561C107.429 28.5591 107.737 30.0397 108.845 30.7601C128.937 43.8815 135.659 70.661 124.148 91.7219L114.126 110.06L113.669 110.895C113.277 111.615 112.854 112.341 112.417 113.046C112.382 113.101 112.363 113.165 112.333 113.22C111.632 114.02 110.45 114.263 109.481 113.732C108.358 113.121 107.946 111.71 108.557 110.587L109.65 108.584L119.07 91.3443C122.866 84.3935 124.59 76.5386 124.048 68.624C123.959 67.3073 122.821 66.3137 121.504 66.4081C120.188 66.4975 119.194 67.6352 119.288 68.9519C119.765 75.9572 118.245 82.908 114.881 89.0588L105.462 106.299L104.368 108.301L104.16 108.684C104.06 108.863 103.996 109.051 103.951 109.245C102.749 112.49 104.065 116.221 107.19 117.925C110.619 119.798 114.936 118.536 116.809 115.103L117.858 113.185L118.315 112.35L128.336 94.0123C141.035 70.7802 133.617 41.2384 111.453 26.7655Z" fill="#00756A"/>
<path d="M36.6141 93.7146C37.6774 94.2959 38.8747 94.6188 40.1218 94.6436C42.1638 94.6834 44.1014 93.9282 45.5721 92.5172C46.9682 91.1757 47.783 89.397 47.9022 87.4792C47.9022 87.4544 47.9022 87.4246 47.9072 87.3998C47.9072 87.3203 47.9221 87.2358 47.9221 87.1563C47.9221 87.1116 47.9122 87.0718 47.9122 87.0271C47.9122 87.0073 47.9122 86.9924 47.9122 86.9725C47.3358 82.0389 48.1854 77.0407 50.5702 72.6835L57.5955 59.8303C65.2716 45.7897 83.4956 41.1046 97.089 50.2265C108.968 58.1957 112.387 74.1988 105.525 86.7539L99.3993 97.9625C92.3989 110.776 76.6194 115.764 63.5824 109.618C62.1813 109.365 60.9641 110.075 60.6063 111.029C59.8412 113.076 61.4162 113.971 61.7093 114.04C76.9771 121.13 95.3948 115.233 103.583 100.253L110.012 88.4878C118.935 72.1618 112.223 51.4238 94.9576 43.6036C79.9631 36.8119 60.969 43.6881 53.0793 58.1311L46.9682 69.3149C43.9872 74.7652 42.6706 80.916 43.1376 87.1166C43.1078 87.8668 42.7997 88.5624 42.2582 89.0791C41.7067 89.6107 40.9763 89.8939 40.2062 89.879C39.4411 89.8641 38.7257 89.5511 38.1891 88.9946C37.7121 88.4978 37.4488 87.8568 37.409 87.1812C37.2948 80.8266 38.8399 74.5218 41.8855 68.9423L50.3417 53.4708C54.4356 45.9785 61.0833 40.1109 69.0625 36.9411C71.7404 35.8779 74.5426 35.1227 77.3944 34.7003C78.9445 34.4718 79.9233 32.8024 79.1781 31.2523C78.7259 30.3182 77.6478 29.8363 76.6243 29.9903C73.4346 30.4673 70.2996 31.3119 67.3037 32.5043C58.296 36.0816 50.7888 42.7143 46.1633 51.1804L37.7072 66.6519C34.3585 72.7779 32.6295 79.674 32.6493 86.6495C32.6444 86.7141 32.6245 86.7787 32.6245 86.8483C32.6245 87.047 32.6295 87.2458 32.6394 87.4395C32.6394 87.4644 32.6394 87.4842 32.6394 87.5091C32.6394 87.514 32.6394 87.524 32.6394 87.5289C32.7587 89.3176 33.494 90.9919 34.751 92.2986C35.3025 92.8749 35.9285 93.3518 36.6091 93.7195L36.6141 93.7146Z" fill="#00756A"/>
<path d="M89.6069 32.1271C88.5884 33.6722 89.0156 35.749 90.5608 36.7675C92.1059 37.786 94.1827 37.3587 95.2012 35.8136C96.2198 34.2684 95.7925 32.1917 94.2473 31.1732C92.7022 30.1546 90.6254 30.5819 89.6069 32.1271Z" fill="#00756A"/>
<path d="M92.9582 119.143C91.9397 120.688 92.3669 122.765 93.9121 123.783C95.4573 124.802 97.5341 124.374 98.5526 122.829C99.5711 121.284 99.1438 119.207 97.5986 118.189C96.0535 117.17 93.9767 117.598 92.9582 119.143Z" fill="#00756A"/>
<path d="M85.8586 57.7831C87.2895 54.9412 90.7524 53.7935 93.5943 55.2244C96.4362 56.6553 97.5839 60.1183 96.153 62.9602C94.7221 65.8021 91.2592 66.9498 88.4173 65.5189C85.5754 64.088 84.4277 60.625 85.8586 57.7831Z" fill="#00756A"/>
<path d="M99.6298 66.6671C101.071 69.6333 101.498 72.9124 100.862 76.1567C100.41 78.4571 99.6049 80.2606 98.4125 81.8008C97.712 82.859 96.8773 83.8328 95.9134 84.7023C94.8353 85.6662 93.1212 85.4724 92.3114 84.1955C91.7003 83.2416 91.9089 81.9995 92.7039 81.1996C92.992 80.9114 93.2852 80.6233 93.5684 80.3301C93.787 80.0966 94.0006 79.8532 94.1994 79.5998C94.2242 79.57 94.2441 79.5352 94.2689 79.5054C94.3683 79.3762 94.4527 79.2371 94.5471 79.1029C95.4663 77.5826 96.0625 75.9729 96.3159 74.388C96.4302 73.3993 96.4252 72.3658 96.2513 71.2827C96.1022 70.3785 95.6998 69.5438 95.347 68.6992C94.9148 67.6608 95.193 66.4336 96.1171 65.7778C97.3493 64.9034 99.0137 65.3704 99.6447 66.6671H99.6298Z" fill="#00756A"/>
<path d="M75.553 87.4327C75.8213 88.7195 74.9915 89.9765 73.7047 90.2448C72.4179 90.5131 71.1609 89.6834 70.8927 88.3966C70.7883 87.8997 70.2468 86.1061 69.7251 84.3771C68.0011 78.6784 66.5602 73.7697 66.3864 71.4196C66.1976 68.8659 66.3168 65.4576 68.8904 61.7264C70.1524 59.903 71.7571 58.4622 73.5457 57.389C73.7594 57.2549 73.973 57.1505 74.1867 57.0313C74.4301 56.9021 74.6636 56.763 74.912 56.6437C75.3195 56.45 75.7269 56.296 76.1392 56.1519C77.2472 55.7494 78.3949 55.4861 79.5575 55.347C79.6618 55.3321 79.7711 55.3172 79.8754 55.3073C80.1537 55.2824 80.4369 55.2625 80.7151 55.2526C81.0231 55.2327 81.3262 55.193 81.6392 55.193C81.8131 55.193 81.977 55.2129 82.141 55.2476C82.1559 55.2476 82.1758 55.2476 82.1907 55.2476C82.3348 55.2576 82.464 55.3122 82.5683 55.3868C83.5322 55.7942 84.178 56.8177 83.9893 57.9703C83.8054 59.0882 82.8266 59.8732 81.7038 59.9427C81.2964 59.9676 80.884 59.9825 80.4816 60.0173C80.1636 60.0471 79.8506 60.0819 79.5376 60.1415C79.5277 60.1415 79.5177 60.1415 79.5128 60.1465C79.478 60.1514 79.4482 60.1614 79.4134 60.1713C79.2544 60.2011 79.0954 60.2508 78.9364 60.2856C77.2373 60.8023 75.7219 61.6121 74.4798 62.6207C73.7345 63.2815 73.0489 64.0566 72.4577 64.9807C71.9658 65.7557 71.7124 66.6451 71.4094 67.5096C71.3845 67.5791 71.3547 67.6387 71.3249 67.7033C71.0516 68.8908 71.0467 70.0087 71.1262 71.0669C71.2752 73.089 73.1483 79.2896 74.2711 82.996C74.9915 85.3758 75.4039 86.752 75.543 87.4277L75.553 87.4327Z" fill="#00756A"/>
<path d="M59.8078 96.5178C61.2486 93.6809 64.7165 92.5481 67.5535 93.989C70.3904 95.4298 71.5232 98.8977 70.0824 101.735C68.6415 104.572 65.1736 105.704 62.3367 104.264C59.4997 102.823 58.367 99.3548 59.8078 96.5178Z" fill="#00756A"/>
<path d="M61.4157 74.1922C62.1262 75.0766 62.0517 76.3336 61.3511 77.213C61.0977 77.531 60.8344 77.849 60.586 78.1719C60.3922 78.4303 60.2084 78.6886 60.0395 78.9668C60.0196 79.0016 60.0047 79.0364 59.9848 79.0712C59.9004 79.2103 59.8308 79.3593 59.7513 79.5034C59.0011 81.1132 58.5838 82.7776 58.5043 84.3774C58.4943 85.3711 58.6136 86.3995 58.9017 87.4578C59.1452 88.3421 59.637 89.1271 60.0792 89.932C60.6208 90.9157 60.4767 92.1678 59.6321 92.918C58.4993 93.9216 56.7951 93.6384 56.03 92.4112C54.2762 89.619 53.5011 86.4045 53.7843 83.1105C53.9831 80.7753 54.5942 78.8973 55.6127 77.2329C56.194 76.1051 56.9194 75.0468 57.7888 74.078C58.7527 72.9998 60.4817 73.0098 61.4257 74.1922H61.4157Z" fill="#00756A"/>
<path d="M85.9156 100.009C84.6338 101.817 83.0141 103.238 81.2106 104.291C80.997 104.421 80.7783 104.525 80.5647 104.639C80.3213 104.763 80.0828 104.902 79.8344 105.017C79.427 105.206 79.0146 105.36 78.6022 105.494C77.4893 105.881 76.3416 106.135 75.174 106.254C75.0697 106.269 74.9604 106.279 74.8561 106.294C74.5729 106.318 74.2946 106.333 74.0114 106.338C73.7034 106.353 73.4003 106.393 73.0873 106.388C72.9134 106.388 72.7495 106.363 72.5855 106.328C72.5706 106.328 72.5508 106.328 72.5358 106.328C72.3918 106.318 72.2626 106.264 72.1632 106.184C71.2043 105.762 70.5734 104.734 70.7721 103.586C70.9659 102.468 71.9595 101.693 73.0824 101.638C73.4898 101.618 73.9022 101.608 74.3096 101.579C74.6275 101.554 74.9405 101.519 75.2585 101.464C75.2684 101.464 75.2784 101.464 75.2883 101.464C75.3231 101.459 75.3529 101.449 75.3877 101.444C75.5467 101.415 75.7057 101.37 75.8647 101.335C77.5688 100.838 79.0941 100.048 80.3511 99.0497C81.1013 98.3989 81.7969 97.6338 82.398 96.7146C82.8998 95.9445 83.1632 95.0601 83.4762 94.1956C83.501 94.1261 83.5358 94.0665 83.5656 94.0019C83.8538 92.8194 83.8687 91.7015 83.8041 90.6432C83.6799 88.6211 81.8764 82.3958 80.7982 78.6745C80.1076 76.2897 79.7102 74.9035 79.576 74.2278C79.3226 72.936 80.1673 71.689 81.4541 71.4405C82.7409 71.1872 83.9929 72.0318 84.2413 73.3186C84.3407 73.8204 84.8574 75.614 85.3642 77.3529C87.0186 83.0715 88.4048 87.9951 88.5489 90.3501C88.7079 92.9039 88.5489 96.3122 85.9305 100.014L85.9156 100.009Z" fill="#00756A"/>
</svg>
