<svg width="310" height="210" viewBox="0 0 310 210" fill="none" xmlns="http://www.w3.org/2000/svg">
<path d="M184.769 196.808H126.1C117.567 196.808 110.625 189.866 110.625 181.333V28.127C110.625 19.5935 117.567 12.6518 126.1 12.6518H184.769C193.302 12.6518 200.244 19.5935 200.244 28.127V181.333C200.244 189.866 193.302 196.808 184.769 196.808Z" fill="#CACCCC"/>
<path d="M184.811 192.619H126.058C119.742 192.619 114.602 187.479 114.602 181.163V27.9964C114.602 21.6806 119.742 16.5404 126.058 16.5404H184.811C191.127 16.5404 196.267 21.6806 196.267 27.9964V181.163C196.267 187.479 191.127 192.619 184.811 192.619Z" fill="#FAF9F6"/>
<path d="M163.743 26.7357H147.129C144.935 26.7357 143.152 24.9524 143.152 22.759C143.152 20.5656 144.935 18.7824 147.129 18.7824H163.743C165.937 18.7824 167.72 20.5656 167.72 22.759C167.72 24.9524 165.937 26.7357 163.743 26.7357Z" fill="#DADBDC"/>
<path d="M140.158 75.8558C139.235 76.637 138.058 77.1256 136.846 77.2325C136.679 77.247 136.555 77.3949 136.57 77.5618C136.58 77.6667 136.641 77.7546 136.728 77.802C136.778 77.8298 136.838 77.8431 136.9 77.838C138.235 77.7204 139.532 77.1813 140.551 76.3197C140.679 76.2116 140.695 76.0201 140.587 75.8918C140.479 75.7641 140.287 75.7477 140.159 75.8558H140.158Z" fill="#00756A"/>
<path d="M135.321 77.1686C134.691 77.0586 134.085 76.8469 133.52 76.5384C132.881 76.1889 132.319 75.7306 131.852 75.1756C131.744 75.0473 131.553 75.0309 131.424 75.139C131.296 75.247 131.28 75.4386 131.388 75.5669C131.903 76.1794 132.523 76.6857 133.229 77.0713C133.852 77.412 134.521 77.6458 135.217 77.7672C135.382 77.7963 135.539 77.6856 135.568 77.52C135.597 77.3544 135.486 77.197 135.321 77.1686Z" fill="#00756A"/>
<path d="M130.521 70.4951C130.546 70.3289 130.431 70.1747 130.265 70.1506C130.099 70.126 129.945 70.241 129.921 70.4066C129.739 71.6354 129.914 72.8888 130.425 74.031C130.453 74.0942 130.5 74.1429 130.556 74.1733C130.636 74.2175 130.736 74.2245 130.826 74.184C130.979 74.1157 131.048 73.9362 130.979 73.7826C130.515 72.7466 130.357 71.6095 130.521 70.4951Z" fill="#00756A"/>
<path d="M134.66 63.8773C134.805 63.7919 134.852 63.6055 134.767 63.4614C134.681 63.3172 134.495 63.2698 134.351 63.3552C133.353 63.9468 132.532 64.797 131.976 65.8146L130.643 68.2539C130.496 68.5231 130.367 68.805 130.259 69.0914C130.205 69.2349 130.267 69.3929 130.398 69.4643C130.41 69.4713 130.424 69.477 130.437 69.4826C130.594 69.5414 130.769 69.4618 130.828 69.305C130.925 69.0452 131.042 68.7899 131.176 68.5453L132.509 66.106C133.013 65.1844 133.757 64.4139 134.66 63.8779V63.8773Z" fill="#00756A"/>
<path d="M135.318 63.42C135.394 63.4611 135.486 63.4706 135.572 63.4371C137.053 62.8714 138.657 62.9137 140.088 63.5553C140.241 63.6242 140.421 63.5553 140.49 63.4024C140.558 63.2494 140.49 63.0699 140.337 63.001C138.757 62.2924 136.988 62.2456 135.356 62.8695C135.199 62.9295 135.121 63.1046 135.181 63.2614C135.207 63.3316 135.258 63.3859 135.318 63.4194V63.42Z" fill="#00756A"/>
<path d="M140.262 64.9571C140.162 65.0924 140.191 65.282 140.327 65.3819C141.039 65.9053 141.588 66.6208 141.913 67.452C141.94 67.5209 141.99 67.5746 142.05 67.6075C142.126 67.6492 142.22 67.658 142.307 67.6239C142.463 67.5626 142.54 67.3869 142.479 67.2308C142.112 66.2921 141.492 65.4837 140.686 64.892C140.551 64.7928 140.361 64.8219 140.262 64.9571H140.262Z" fill="#00756A"/>
<path d="M137.673 76.0973C137.638 75.9336 137.477 75.8286 137.313 75.8628C136.424 76.0511 135.507 75.9772 134.661 75.6497C134.505 75.5891 134.328 75.6668 134.268 75.8236C134.208 75.9797 134.285 76.156 134.442 76.2161C135.399 76.5859 136.435 76.6693 137.439 76.4569C137.603 76.4222 137.708 76.261 137.673 76.0973H137.673Z" fill="#00756A"/>
<path d="M131.703 72.6335C131.546 72.6936 131.468 72.8686 131.527 73.0254C131.776 73.6777 132.143 74.2649 132.618 74.7706C132.641 74.7946 132.666 74.8142 132.694 74.8294C132.806 74.8907 132.949 74.8762 133.047 74.7839C133.169 74.6688 133.175 74.4767 133.06 74.3547C132.64 73.9072 132.315 73.3876 132.095 72.8092C132.036 72.6525 131.86 72.5741 131.703 72.6335Z" fill="#00756A"/>
<path d="M141.232 63.4908C141.092 63.3998 140.903 63.4383 140.811 63.5787C140.72 63.719 140.759 63.9074 140.9 63.999C143.456 65.6684 144.311 69.0753 142.847 71.7547L141.572 74.0878L141.514 74.194C141.464 74.2856 141.41 74.3779 141.354 74.4677C141.35 74.4746 141.347 74.4828 141.344 74.4898C141.254 74.5916 141.104 74.6225 140.981 74.5549C140.838 74.4772 140.785 74.2976 140.863 74.1548L141.002 73.9001L142.201 71.7067C142.684 70.8224 142.903 69.8231 142.834 68.8162C142.823 68.6487 142.678 68.5222 142.51 68.5342C142.343 68.5456 142.216 68.6904 142.229 68.8579C142.289 69.7491 142.096 70.6334 141.668 71.4159L140.469 73.6093L140.33 73.864L140.304 73.9127C140.291 73.9355 140.283 73.9595 140.277 73.9841C140.124 74.3969 140.292 74.8716 140.689 75.0884C141.126 75.3267 141.675 75.1661 141.913 74.7294L142.046 74.4854L142.105 74.3792L143.38 72.0461C144.995 69.0905 144.051 65.3321 141.232 63.4908Z" fill="#00756A"/>
<path d="M131.71 72.0083C131.846 72.0822 131.998 72.1233 132.157 72.1265C132.416 72.1315 132.663 72.0354 132.85 71.8559C133.028 71.6853 133.131 71.459 133.147 71.215C133.147 71.2118 133.147 71.208 133.147 71.2049C133.147 71.1948 133.149 71.184 133.149 71.1739C133.149 71.1682 133.148 71.1632 133.148 71.1575C133.148 71.1549 133.148 71.153 133.148 71.1505C133.074 70.5229 133.183 69.887 133.486 69.3326L134.38 67.6974C135.356 65.9111 137.675 65.3151 139.404 66.4756C140.916 67.4895 141.35 69.5254 140.478 71.1227L139.698 72.5487C138.808 74.1789 136.8 74.8135 135.141 74.0316C134.963 73.9993 134.808 74.0897 134.763 74.2111C134.665 74.4715 134.866 74.5853 134.903 74.5941C136.846 75.4961 139.189 74.7458 140.23 72.8401L141.048 71.3433C142.184 69.2663 141.33 66.6279 139.133 65.633C137.225 64.7689 134.809 65.6437 133.805 67.4812L133.028 68.9041C132.648 69.5975 132.481 70.38 132.54 71.1688C132.537 71.2643 132.497 71.3528 132.429 71.4185C132.358 71.4862 132.265 71.5222 132.167 71.5203C132.07 71.5184 131.979 71.4786 131.911 71.4078C131.85 71.3446 131.817 71.263 131.812 71.1771C131.797 70.3686 131.994 69.5665 132.381 68.8567L133.457 66.8883C133.978 65.9351 134.823 65.1886 135.839 64.7854C136.179 64.6501 136.536 64.554 136.899 64.5003C137.096 64.4712 137.22 64.2588 137.126 64.0616C137.068 63.9428 136.931 63.8815 136.801 63.9011C136.395 63.9618 135.996 64.0692 135.615 64.2209C134.469 64.676 133.514 65.5199 132.925 66.5969L131.85 68.5653C131.423 69.3446 131.204 70.222 131.206 71.1094C131.205 71.1176 131.203 71.1259 131.203 71.1347C131.203 71.16 131.204 71.1853 131.205 71.2099C131.205 71.2131 131.205 71.2156 131.205 71.2188C131.205 71.2194 131.205 71.2207 131.205 71.2213C131.22 71.4489 131.313 71.6619 131.473 71.8281C131.544 71.9014 131.623 71.9621 131.71 72.0089L131.71 72.0083Z" fill="#00756A"/>
<path d="M138.452 64.1729C138.323 64.3695 138.377 64.6337 138.574 64.7632C138.77 64.8928 139.034 64.8385 139.164 64.6419C139.294 64.4453 139.239 64.1811 139.043 64.0515C138.846 63.9219 138.582 63.9763 138.452 64.1729Z" fill="#00756A"/>
<path d="M138.879 75.2433C138.749 75.4399 138.804 75.7041 139 75.8337C139.197 75.9632 139.461 75.9089 139.59 75.7123C139.72 75.5157 139.666 75.2515 139.469 75.1219C139.273 74.9923 139.008 75.0467 138.879 75.2433Z" fill="#00756A"/>
<path d="M137.976 67.4369C138.158 67.0754 138.598 66.9293 138.96 67.1114C139.321 67.2934 139.467 67.734 139.285 68.0956C139.103 68.4571 138.663 68.6031 138.301 68.4211C137.94 68.239 137.794 67.7985 137.976 67.4369Z" fill="#00756A"/>
<path d="M139.727 68.5672C139.911 68.9446 139.965 69.3617 139.884 69.7745C139.827 70.0671 139.724 70.2966 139.573 70.4925C139.483 70.6272 139.377 70.7511 139.255 70.8617C139.117 70.9843 138.899 70.9597 138.796 70.7972C138.719 70.6758 138.745 70.5178 138.846 70.4161C138.883 70.3794 138.92 70.3427 138.956 70.3054C138.984 70.2757 139.011 70.2448 139.037 70.2125C139.04 70.2087 139.042 70.2043 139.045 70.2005C139.058 70.1841 139.069 70.1664 139.081 70.1493C139.198 69.9559 139.274 69.7511 139.306 69.5495C139.32 69.4237 139.32 69.2922 139.298 69.1544C139.279 69.0394 139.227 68.9332 139.183 68.8257C139.128 68.6936 139.163 68.5375 139.281 68.4541C139.437 68.3428 139.649 68.4022 139.729 68.5672H139.727Z" fill="#00756A"/>
<path d="M136.665 71.2091C136.699 71.3728 136.593 71.5327 136.429 71.5668C136.266 71.6009 136.106 71.4954 136.072 71.3317C136.058 71.2685 135.989 71.0403 135.923 70.8203C135.704 70.0953 135.52 69.4708 135.498 69.1718C135.474 68.8469 135.489 68.4133 135.817 67.9386C135.977 67.7066 136.182 67.5233 136.409 67.3868C136.436 67.3697 136.464 67.3565 136.491 67.3413C136.522 67.3249 136.551 67.3072 136.583 67.292C136.635 67.2673 136.687 67.2477 136.739 67.2294C136.88 67.1782 137.026 67.1447 137.174 67.127C137.187 67.1251 137.201 67.1232 137.214 67.122C137.25 67.1188 137.286 67.1163 137.321 67.115C137.36 67.1125 137.399 67.1074 137.439 67.1074C137.461 67.1074 137.482 67.1099 137.503 67.1144C137.505 67.1144 137.507 67.1144 137.509 67.1144C137.527 67.1156 137.544 67.1226 137.557 67.1321C137.68 67.1839 137.762 67.3141 137.738 67.4608C137.714 67.603 137.59 67.7029 137.447 67.7117C137.395 67.7149 137.343 67.7168 137.292 67.7212C137.251 67.725 137.211 67.7294 137.171 67.737C137.17 67.737 137.169 67.737 137.168 67.7376C137.164 67.7382 137.16 67.7395 137.156 67.7408C137.135 67.7446 137.115 67.7509 137.095 67.7553C136.879 67.8211 136.686 67.9241 136.528 68.0524C136.433 68.1365 136.346 68.2351 136.271 68.3526C136.208 68.4512 136.176 68.5644 136.137 68.6744C136.134 68.6832 136.13 68.6908 136.127 68.699C136.092 68.8501 136.091 68.9923 136.101 69.1269C136.12 69.3842 136.359 70.1731 136.501 70.6446C136.593 70.9474 136.646 71.1225 136.663 71.2084L136.665 71.2091Z" fill="#00756A"/>
<path d="M134.661 72.3649C134.845 72.004 135.286 71.8599 135.647 72.0432C136.008 72.2265 136.152 72.6677 135.969 73.0286C135.785 73.3895 135.344 73.5336 134.983 73.3503C134.622 73.167 134.478 72.7258 134.661 72.3649Z" fill="#00756A"/>
<path d="M134.866 69.5244C134.956 69.6369 134.947 69.7968 134.858 69.9087C134.825 69.9491 134.792 69.9896 134.76 70.0307C134.736 70.0636 134.712 70.0964 134.691 70.1318C134.688 70.1362 134.686 70.1407 134.684 70.1451C134.673 70.1628 134.664 70.1818 134.654 70.2001C134.559 70.4049 134.506 70.6166 134.495 70.8202C134.494 70.9466 134.509 71.0774 134.546 71.2121C134.577 71.3246 134.64 71.4244 134.696 71.5268C134.765 71.652 134.746 71.8113 134.639 71.9067C134.495 72.0344 134.278 71.9984 134.181 71.8423C133.958 71.487 133.859 71.0781 133.895 70.659C133.92 70.3619 133.998 70.123 134.128 69.9112C134.202 69.7677 134.294 69.6331 134.404 69.5098C134.527 69.3727 134.747 69.3739 134.867 69.5244H134.866Z" fill="#00756A"/>
<path d="M137.983 72.809C137.82 73.0391 137.614 73.2198 137.384 73.3538C137.357 73.3703 137.329 73.3835 137.302 73.3981C137.271 73.4139 137.241 73.4316 137.209 73.4461C137.157 73.4701 137.105 73.4897 137.052 73.5068C136.911 73.5561 136.765 73.5883 136.616 73.6035C136.603 73.6054 136.589 73.6067 136.576 73.6086C136.54 73.6117 136.504 73.6136 136.468 73.6143C136.429 73.6162 136.391 73.6212 136.351 73.6206C136.329 73.6206 136.308 73.6174 136.287 73.613C136.285 73.613 136.282 73.613 136.281 73.613C136.262 73.6117 136.246 73.6048 136.233 73.5947C136.111 73.5409 136.031 73.4101 136.056 73.2641C136.081 73.1219 136.207 73.0233 136.35 73.0163C136.402 73.0138 136.454 73.0125 136.506 73.0087C136.547 73.0056 136.586 73.0011 136.627 72.9942C136.628 72.9942 136.629 72.9942 136.631 72.9942C136.635 72.9935 136.639 72.9923 136.643 72.9917C136.664 72.9879 136.684 72.9822 136.704 72.9777C136.921 72.9145 137.115 72.814 137.275 72.687C137.37 72.6042 137.459 72.5068 137.535 72.3899C137.599 72.2919 137.633 72.1794 137.672 72.0694C137.676 72.0606 137.68 72.053 137.684 72.0448C137.72 71.8943 137.722 71.7521 137.714 71.6175C137.698 71.3602 137.469 70.5682 137.332 70.0948C137.244 69.7914 137.193 69.615 137.176 69.5291C137.144 69.3647 137.251 69.2061 137.415 69.1745C137.579 69.1422 137.738 69.2497 137.77 69.4134C137.782 69.4772 137.848 69.7054 137.913 69.9266C138.123 70.6542 138.299 71.2806 138.318 71.5802C138.338 71.9051 138.318 72.3387 137.985 72.8096L137.983 72.809Z" fill="#00756A"/>
<path d="M181.353 65.6256V74.5454H179.18V69.196L177.186 74.5454H175.432L173.424 69.1833V74.5454H171.252V65.6256H173.818L176.322 71.8008L178.799 65.6256H181.353Z" fill="#232726"/>
<path d="M167.511 74.5454L165.655 71.1782H165.134V74.5454H162.962V65.6256H166.608C167.311 65.6256 167.909 65.7484 168.4 65.9941C168.9 66.2397 169.272 66.5786 169.518 67.0106C169.764 67.4341 169.887 67.9085 169.887 68.4337C169.887 69.0266 169.717 69.5561 169.378 70.022C169.048 70.4879 168.557 70.8182 167.904 71.013L169.963 74.5454H167.511ZM165.134 69.6408H166.481C166.879 69.6408 167.176 69.5434 167.371 69.3485C167.574 69.1537 167.676 68.8784 167.676 68.5226C167.676 68.1838 167.574 67.9169 167.371 67.7221C167.176 67.5273 166.879 67.4299 166.481 67.4299H165.134V69.6408Z" fill="#232726"/>
<path d="M161.394 65.6256V74.5454H159.222V70.8733H155.842V74.5454H153.669V65.6256H155.842V69.1198H159.222V65.6256H161.394Z" fill="#232726"/>
<path d="M149.468 74.6469C148.85 74.6469 148.299 74.541 147.817 74.3292C147.334 74.1174 146.953 73.8294 146.673 73.4652C146.393 73.0925 146.237 72.6774 146.203 72.22H148.35C148.376 72.4656 148.49 72.6647 148.693 72.8171C148.897 72.9696 149.147 73.0459 149.443 73.0459C149.714 73.0459 149.922 72.995 150.066 72.8934C150.218 72.7833 150.294 72.6435 150.294 72.4741C150.294 72.2708 150.188 72.1225 149.977 72.0294C149.765 71.9277 149.422 71.8176 148.947 71.699C148.439 71.5804 148.016 71.4576 147.677 71.3305C147.338 71.195 147.046 70.9874 146.8 70.7079C146.554 70.4199 146.432 70.0345 146.432 69.5516C146.432 69.145 146.542 68.7765 146.762 68.4462C146.991 68.1073 147.321 67.8405 147.753 67.6457C148.194 67.4509 148.714 67.3534 149.316 67.3534C150.205 67.3534 150.904 67.5737 151.412 68.0142C151.929 68.4547 152.226 69.0391 152.302 69.7676H150.294C150.26 69.522 150.15 69.3272 149.964 69.1831C149.786 69.0391 149.549 68.9671 149.252 68.9671C148.998 68.9671 148.803 69.018 148.668 69.1196C148.532 69.2128 148.465 69.3441 148.465 69.5135C148.465 69.7168 148.57 69.8693 148.782 69.9709C149.003 70.0726 149.341 70.1742 149.799 70.2759C150.324 70.4114 150.752 70.547 151.082 70.6825C151.412 70.8096 151.7 71.0213 151.946 71.3178C152.2 71.6058 152.332 71.9955 152.34 72.4868C152.34 72.9019 152.221 73.2746 151.984 73.6049C151.756 73.9268 151.421 74.181 150.98 74.3673C150.548 74.5537 150.044 74.6469 149.468 74.6469Z" fill="#232726"/>
<path d="M182.871 90H128.129C125.852 90 124 91.6992 124 93.7891V97.2109C124 99.3008 125.852 101 128.129 101H182.871C185.148 101 187 99.3008 187 97.2109V93.7891C187 91.6992 185.148 90 182.871 90Z" fill="#E5E5E5"/>
<path d="M182.871 103H128.129C125.852 103 124 104.699 124 106.789V110.211C124 112.301 125.852 114 128.129 114H182.871C185.148 114 187 112.301 187 110.211V106.789C187 104.699 185.148 103 182.871 103Z" fill="#E5E5E5"/>
<path d="M174.247 129H137.753C136.234 129 135 130.699 135 132.789V136.211C135 138.301 136.234 140 137.753 140H174.247C175.766 140 177 138.301 177 136.211V132.789C177 130.699 175.766 129 174.247 129Z" fill="#00756A"/>
</svg>
