<svg width="70" height="70" viewBox="0 0 70 70" fill="none" xmlns="http://www.w3.org/2000/svg">
<rect width="70" height="70" rx="35" fill="#FAF9F6"/>
<path d="M54.7198 42.9803C53.4777 42.9803 52.2635 42.6221 51.2308 41.951C50.198 41.28 49.393 40.3261 48.9177 39.2101C48.4424 38.0941 48.318 36.8661 48.5603 35.6814C48.8026 34.4967 49.4008 33.4085 50.2791 32.5543C51.1574 31.7002 52.2764 31.1185 53.4946 30.8829C54.7129 30.6472 55.9756 30.7682 57.1232 31.2304C58.2707 31.6927 59.2515 32.4755 59.9416 33.4798C60.6317 34.4842 61 35.665 61 36.8729C61 38.4927 60.3384 40.0461 59.1606 41.1915C57.9828 42.3369 56.3854 42.9803 54.7198 42.9803ZM54.7198 40.4559C55.4485 40.4559 56.1609 40.2458 56.7668 39.8521C57.3727 39.4584 57.8449 38.8988 58.1238 38.2441C58.4026 37.5894 58.4756 36.8689 58.3334 36.1739C58.1913 35.4789 57.8404 34.8404 57.3251 34.3394C56.8098 33.8383 56.1533 33.497 55.4386 33.3588C54.7239 33.2205 53.9831 33.2915 53.3099 33.5627C52.6367 33.8338 52.0612 34.2931 51.6564 34.8823C51.2515 35.4715 51.0355 36.1643 51.0355 36.8729C51.0355 37.8232 51.4236 38.7345 52.1146 39.4065C52.8055 40.0784 53.7427 40.4559 54.7198 40.4559ZM41.5733 42.9803C40.3312 42.9803 39.117 42.6221 38.0842 41.951C37.0515 41.28 36.2465 40.3261 35.7712 39.2101C35.2958 38.0941 35.1715 36.8661 35.4138 35.6814C35.6561 34.4967 36.2543 33.4085 37.1326 32.5543C38.0109 31.7002 39.1299 31.1185 40.3481 30.8829C41.5663 30.6472 42.8291 30.7682 43.9766 31.2304C45.1242 31.6927 46.105 32.4755 46.7951 33.4798C47.4852 34.4842 47.8535 35.665 47.8535 36.8729C47.8535 38.4927 47.1918 40.0461 46.0141 41.1915C44.8363 42.3369 43.2389 42.9803 41.5733 42.9803ZM41.5733 40.4559C42.302 40.4559 43.0144 40.2458 43.6202 39.8521C44.2261 39.4584 44.6984 38.8988 44.9772 38.2441C45.2561 37.5894 45.3291 36.8689 45.1869 36.1739C45.0447 35.4789 44.6938 34.8404 44.1786 34.3394C43.6633 33.8383 43.0068 33.497 42.2921 33.3588C41.5774 33.2205 40.8366 33.2915 40.1634 33.5627C39.4901 33.8338 38.9147 34.2931 38.5099 34.8823C38.105 35.4715 37.8889 36.1643 37.8889 36.8729C37.8889 37.8232 38.2771 38.7345 38.9681 39.4065C39.659 40.0784 40.5962 40.4559 41.5733 40.4559ZM34.707 36.7915C34.707 40.2035 31.8935 42.9803 28.4268 42.9803C24.9601 42.9803 22.1466 40.2116 22.1466 36.7996C22.1466 33.3876 24.7005 30.7655 28.4268 30.7655C29.8001 30.7655 31.0728 31.0505 32.1112 31.7916V28.2493C32.1112 27.5734 32.7224 27.0197 33.4091 27.0197C34.0957 27.0197 34.707 27.5734 34.707 28.2493V36.7915ZM28.4268 40.4559C29.1555 40.4559 29.8678 40.2458 30.4737 39.8521C31.0796 39.4584 31.5519 38.8988 31.8307 38.2441C32.1096 37.5894 32.1825 36.8689 32.0404 36.1739C31.8982 35.4789 31.5473 34.8404 31.032 34.3394C30.5168 33.8383 29.8603 33.497 29.1456 33.3588C28.4309 33.2205 27.6901 33.2915 27.0168 33.5627C26.3436 33.8338 25.7682 34.2931 25.3633 34.8823C24.9585 35.4715 24.7424 36.1643 24.7424 36.8729C24.7424 37.8232 25.1306 38.7345 25.8215 39.4065C26.5125 40.0784 27.4496 40.4559 28.4268 40.4559Z" fill="#8F8F8F"/>
<path d="M15.2802 42.9803C14.0381 42.9803 12.8239 42.6221 11.7911 41.951C10.7583 41.2799 9.95339 40.3261 9.47805 39.2101C9.00272 38.0941 8.87835 36.8661 9.12067 35.6814C9.363 34.4967 9.96113 33.4085 10.8394 32.5543C11.7177 31.7002 12.8367 31.1185 14.055 30.8829C15.2732 30.6472 16.536 30.7681 17.6835 31.2304C18.8311 31.6927 19.8119 32.4755 20.502 33.4798C21.1921 34.4842 21.5604 35.665 21.5604 36.8729C21.5604 38.4927 20.8987 40.0461 19.721 41.1915C18.5432 42.3368 16.9458 42.9803 15.2802 42.9803ZM15.2802 40.4559C16.0089 40.4559 16.7212 40.2458 17.3271 39.8521C17.933 39.4584 18.4052 38.8988 18.6841 38.2441C18.963 37.5894 19.0359 36.8689 18.8938 36.1739C18.7516 35.4789 18.4007 34.8404 17.8854 34.3393C17.3702 33.8382 16.7137 33.497 15.999 33.3587C15.2843 33.2205 14.5435 33.2914 13.8702 33.5626C13.197 33.8338 12.6216 34.2931 12.2167 34.8823C11.8119 35.4715 11.5958 36.1643 11.5958 36.8729C11.5958 37.8232 11.984 38.7345 12.6749 39.4065C13.3659 40.0784 14.303 40.4559 15.2802 40.4559Z" fill="#714B67"/>
</svg>
