<svg width="290" height="209" viewBox="0 0 290 209" fill="none" xmlns="http://www.w3.org/2000/svg">
<path d="M239.492 60.0676H151.233C147.995 60.0676 145.362 62.7003 145.362 65.938V126.419C145.362 129.657 147.995 132.29 151.233 132.29H239.492C242.73 132.29 245.362 129.657 245.362 126.419V65.938C245.362 62.7003 242.73 60.0676 239.492 60.0676Z" fill="#FAF9F6"/>
<path d="M194.957 96.0292C200.411 96.0292 204.833 91.6073 204.833 86.1527C204.833 80.698 200.411 76.2761 194.957 76.2761C189.502 76.2761 185.08 80.698 185.08 86.1527C185.08 91.6073 189.502 96.0292 194.957 96.0292Z" fill="#00756A"/>
<path d="M196.83 81.7455C195.608 81.7959 194.231 81.8734 193.306 82.7832C192.54 83.5368 192.272 84.7101 192.976 85.5974C193.718 86.5317 194.95 86.7089 195.918 87.306C196.519 87.677 196.917 88.2392 196.93 88.9616C196.942 89.638 196.63 90.2699 196.109 90.6938C194.828 91.7338 193.082 91.3033 191.871 90.3937C191.633 90.2147 191.402 90.6165 191.637 90.7935C192.641 91.5468 193.932 91.9843 195.18 91.6602C196.329 91.3618 197.255 90.458 197.379 89.2503C197.51 87.9773 196.675 87.1106 195.591 86.6134C194.6 86.1589 192.863 85.6746 193.027 84.2626C193.235 82.4674 195.433 82.266 196.83 82.2084C197.127 82.1962 197.128 81.7332 196.83 81.7455Z" fill="#FAF9F6"/>
<path d="M194.706 80.9058L194.65 93.609C194.649 93.9069 195.112 93.9073 195.113 93.609L195.168 80.9058C195.17 80.6079 194.707 80.6075 194.706 80.9058Z" fill="#FAF9F6"/>
<path d="M239.492 60.0676H151.233C147.995 60.0676 145.362 62.7003 145.362 65.938V126.419C145.362 129.657 147.995 132.29 151.233 132.29H239.492C242.73 132.29 245.362 129.657 245.362 126.419V65.938C245.362 62.7003 242.73 60.0676 239.492 60.0676ZM244.745 126.419C244.745 129.318 242.39 131.673 239.492 131.673H151.233C148.335 131.673 145.98 129.318 145.98 126.419V65.938C145.98 63.0399 148.335 60.6849 151.233 60.6849H239.492C242.39 60.6849 244.745 63.0398 244.745 65.938V126.419Z" fill="#CACCCC"/>
<path d="M185.186 66.0399H176.526C176.091 66.0399 175.736 66.3948 175.736 66.83C175.736 67.2683 176.091 67.6232 176.526 67.6232H185.186C185.622 67.6232 185.977 67.2683 185.977 66.83C185.977 66.3948 185.622 66.0399 185.186 66.0399Z" fill="#E6E6E6"/>
<path d="M199.693 66.0399H191.032C190.597 66.0399 190.242 66.3948 190.242 66.83C190.242 67.2683 190.597 67.6232 191.032 67.6232H199.693C200.128 67.6232 200.483 67.2683 200.483 66.83C200.483 66.3948 200.128 66.0399 199.693 66.0399Z" fill="#E6E6E6"/>
<path d="M214.199 66.0399H205.538C205.103 66.0399 204.748 66.3948 204.748 66.83C204.748 67.2683 205.103 67.6232 205.538 67.6232H214.199C214.634 67.6232 214.989 67.2683 214.989 66.83C214.989 66.3948 214.634 66.0399 214.199 66.0399Z" fill="#E6E6E6"/>
<path d="M228.483 101.585H162.242C159.486 101.585 157.245 103.825 157.245 106.582V111.094C157.245 113.85 159.486 116.091 162.242 116.091H228.483C231.239 116.091 233.48 113.85 233.48 111.094V106.582C233.48 103.825 231.239 101.585 228.483 101.585Z" fill="#00756A"/>
<path d="M125.209 181.192H63.8029C56.3155 181.192 50.224 175.1 50.224 167.613V35.6466C50.224 28.1592 56.3155 22.0677 63.8029 22.0677H125.209C132.696 22.0677 138.788 28.1592 138.788 35.6466V167.613C138.788 175.1 132.696 181.192 125.209 181.192Z" fill="#CACCCC"/>
<path d="M138.788 70.6093C138.471 70.6093 138.213 70.8669 138.213 71.1837V89.5663C138.213 89.8831 138.471 90.1407 138.788 90.1407C139.105 90.1407 139.362 89.8831 139.362 89.5663V71.1837C139.362 70.8669 139.105 70.6093 138.788 70.6093Z" fill="#3F3D56"/>
<path d="M137.495 35.6468V167.61C137.495 174.128 132.423 179.459 126.009 179.872H126.006C125.912 179.878 125.817 179.884 125.719 179.887C125.55 179.895 125.38 179.898 125.208 179.898C125.208 179.898 124.576 179.852 123.421 179.766C122.255 179.68 120.558 179.551 118.441 179.381C117.806 179.332 117.137 179.278 116.43 179.22C115.023 179.105 113.477 178.979 111.82 178.835C111.16 178.781 110.476 178.72 109.778 178.66C106.211 178.353 102.215 177.994 98.0017 177.586C97.2893 177.52 96.5713 177.451 95.8475 177.379C95.6579 177.359 95.4654 177.342 95.273 177.322C92.2686 177.026 51.5166 169.15 51.5166 167.61V35.6468C51.5166 28.8596 57.017 23.3592 63.8042 23.3592H71.14C72.3119 23.3592 73.254 24.2726 73.3545 25.4416C73.3631 25.5191 73.3717 25.5967 73.3861 25.6742C73.5986 26.849 74.6757 27.6676 75.8706 27.6676H113.141C114.336 27.6676 115.413 26.849 115.626 25.6742C115.64 25.5967 115.649 25.5191 115.658 25.4416C115.758 24.2726 116.7 23.3592 117.872 23.3592H125.208C131.995 23.3592 137.495 28.8596 137.495 35.6468Z" fill="#FAF9F6"/>
<path d="M49.9368 56.8221C49.6199 56.8221 49.3623 57.0797 49.3623 57.3965V61.9921C49.3623 62.309 49.6199 62.5666 49.9368 62.5666C50.2536 62.5666 50.5112 62.309 50.5112 61.9921V57.3965C50.5112 57.0797 50.2536 56.8221 49.9368 56.8221Z" fill="#CACCCC"/>
<path d="M49.9368 70.6093C49.6199 70.6093 49.3623 70.8669 49.3623 71.1837V80.0878C49.3623 80.4046 49.6199 80.6622 49.9368 80.6622C50.2536 80.6622 50.5112 80.4046 50.5112 80.0878V71.1837C50.5112 70.8669 50.2536 70.6093 49.9368 70.6093Z" fill="#CACCCC"/>
<path d="M49.9368 83.2469C49.6199 83.2469 49.3623 83.5045 49.3623 83.8213V92.7254C49.3623 93.0422 49.6199 93.2998 49.9368 93.2998C50.2536 93.2998 50.5112 93.0422 50.5112 92.7254V83.8213C50.5112 83.5045 50.2536 83.2469 49.9368 83.2469Z" fill="#CACCCC"/>
<path d="M70.9401 25.3709H59.9542C59.8945 25.3709 59.8462 25.4192 59.8462 25.4788V26.699C59.8462 26.7587 59.8945 26.807 59.9542 26.807H70.9401C70.9997 26.807 71.0481 26.7587 71.0481 26.699V25.4788C71.0481 25.4192 70.9997 25.3709 70.9401 25.3709Z" fill="#E6E6E6"/>
<path d="M119.687 26.807C120.322 26.807 120.836 26.2926 120.836 25.6581C120.836 25.0236 120.322 24.5092 119.687 24.5092C119.053 24.5092 118.538 25.0236 118.538 25.6581C118.538 26.2926 119.053 26.807 119.687 26.807Z" fill="#E6E6E6"/>
<path d="M122.847 26.807C123.481 26.807 123.996 26.2926 123.996 25.6581C123.996 25.0236 123.481 24.5092 122.847 24.5092C122.212 24.5092 121.698 25.0236 121.698 25.6581C121.698 26.2926 122.212 26.807 122.847 26.807Z" fill="#E6E6E6"/>
<path d="M126.006 26.807C126.641 26.807 127.155 26.2926 127.155 25.6581C127.155 25.0236 126.641 24.5092 126.006 24.5092C125.372 24.5092 124.857 25.0236 124.857 25.6581C124.857 26.2926 125.372 26.807 126.006 26.807Z" fill="#E6E6E6"/>
<path d="M118.726 103.06H69.9982C69.2305 103.06 68.606 102.435 68.606 101.668C68.606 100.9 69.2305 100.275 69.9982 100.275H118.726C119.494 100.275 120.119 100.9 120.119 101.668C120.119 102.435 119.494 103.06 118.726 103.06Z" fill="#E6E6E6"/>
<path d="M94.5371 157.009C105.686 157.009 114.725 147.971 114.725 136.822C114.725 125.673 105.686 116.634 94.5371 116.634C83.3879 116.634 74.3497 125.673 74.3497 136.822C74.3497 147.971 83.3879 157.009 94.5371 157.009Z" fill="#00756A"/>
<path d="M97.7454 130.23C96.0417 130.3 94.1157 130.417 92.8564 131.725C91.7624 132.86 91.5227 134.546 92.6321 135.758C93.7444 136.974 95.4738 137.139 96.756 138.087C98.2615 139.201 98.041 141.404 96.5841 142.459C94.8661 143.704 92.6479 143.123 91.0772 141.939C90.6747 141.636 90.284 142.315 90.682 142.615C92.0892 143.676 93.9254 144.267 95.6653 143.759C97.2355 143.301 98.4527 142.021 98.5765 140.355C98.6356 139.561 98.4096 138.754 97.9154 138.126C97.3937 137.464 96.6422 137.056 95.8825 136.725C94.5747 136.154 92.323 135.415 92.7032 133.556C93.1641 131.303 95.9067 131.089 97.7454 131.014C98.2476 130.993 98.2502 130.21 97.7454 130.23Z" fill="#FAF9F6"/>
<path d="M94.5849 129.164L94.5098 146.356C94.5076 146.86 95.2907 146.861 95.2929 146.356L95.368 129.164C95.3702 128.66 94.5871 128.66 94.5849 129.164Z" fill="#FAF9F6"/>
<path d="M127.823 83.7587L126.724 80.7856C126.418 82.7793 125.351 85.3177 124.313 87.1534C126.297 86.4382 128.978 85.8125 130.995 85.8447L128.286 84.2844C136.013 79.0533 145.619 79.268 151.363 84.8868L151.849 84.3892C145.85 78.5202 135.836 78.2911 127.823 83.7587Z" fill="#3F3D56"/>
<path d="M88.0172 86.7015H69.9181C69.1504 86.7015 68.5259 86.0769 68.5259 85.3092C68.5259 84.5416 69.1504 83.917 69.9181 83.917H88.0172C88.7848 83.917 89.4094 84.5416 89.4094 85.3092C89.4094 86.0769 88.7848 86.7015 88.0172 86.7015Z" fill="#E6E6E6"/>
</svg>
