<svg width="24" height="25" viewBox="0 0 24 25" fill="none" xmlns="http://www.w3.org/2000/svg">
<path fill-rule="evenodd" clip-rule="evenodd" d="M4.7177 3.59215C5.94388 2.30121 7.9721 2.54307 8.98569 3.97665L10.2467 5.76014C11.0574 6.9068 10.9889 8.50097 10.0214 9.51965L9.7765 9.77743C9.77582 9.77921 9.7751 9.78115 9.77436 9.78323C9.76142 9.81959 9.7287 9.93538 9.7609 10.1551C9.82765 10.6107 10.1793 11.5364 11.607 13.0394C13.0391 14.5472 13.9078 14.9025 14.3103 14.9679C14.484 14.9961 14.5748 14.9716 14.6038 14.9614L15.0124 14.5312C15.8862 13.6113 17.2485 13.4301 18.347 14.0623L20.2575 15.162C21.8904 16.1019 22.2705 18.4011 20.9655 19.775L19.545 21.2705C19.1016 21.7373 18.497 22.1358 17.75 22.2095C15.9261 22.3895 11.701 22.155 7.27161 17.4917C3.13844 13.1403 2.35326 9.35538 2.25401 7.50615L2.92011 7.4704L2.25401 7.50615C2.20497 6.59248 2.61224 5.80879 3.1481 5.24464L4.7177 3.59215ZM7.7609 4.84262C7.24855 4.11797 6.32812 4.07473 5.80528 4.62518L4.23568 6.27767C3.90429 6.62656 3.73042 7.02646 3.75185 7.42576C3.83289 8.93558 4.48307 12.3779 8.35919 16.4587C12.4234 20.7375 16.1676 20.8584 17.6026 20.7167C17.8864 20.6887 18.1783 20.5313 18.4574 20.2375L19.8779 18.7419C20.4907 18.0968 20.3301 16.9345 19.5092 16.462L17.5987 15.3624C17.086 15.0673 16.4854 15.1584 16.1 15.5642L15.6445 16.0437L15.1174 15.543C15.6445 16.0438 15.6438 16.0445 15.6432 16.0452L15.6417 16.0467L15.6388 16.0498L15.6324 16.0562L15.6181 16.0704C15.6078 16.0803 15.5959 16.0913 15.5825 16.1031C15.5556 16.1266 15.5223 16.1535 15.4824 16.1819C15.4022 16.2387 15.2955 16.3012 15.1606 16.3544C14.8846 16.4633 14.5201 16.5216 14.0699 16.4485C13.1923 16.306 12.0422 15.6757 10.5194 14.0724C8.99202 12.4644 8.40746 11.2647 8.27675 10.3726C8.21022 9.91852 8.26346 9.55492 8.36116 9.28035C8.40921 9.14533 8.46594 9.03766 8.51826 8.9559C8.54435 8.91514 8.56922 8.881 8.5912 8.85322C8.60219 8.83933 8.61246 8.82703 8.62182 8.81627L8.63514 8.80129L8.64125 8.79465L8.64415 8.79154L8.64556 8.79004C8.64625 8.78931 8.64694 8.78859 9.17861 9.29357L8.64695 8.78858L8.93376 8.48662C9.3793 8.01755 9.44403 7.22317 9.02189 6.6261L7.7609 4.84262Z" fill="#B7BBBF"/>
<path d="M13.2595 2.38008C13.3257 1.97119 13.7122 1.69381 14.1211 1.76001C14.1464 1.76485 14.2279 1.78007 14.2705 1.78958C14.3559 1.80858 14.4749 1.83784 14.6233 1.88106C14.9201 1.96751 15.3347 2.10991 15.8323 2.33805C16.8286 2.7948 18.1544 3.59381 19.5302 4.96961C20.906 6.34541 21.705 7.67122 22.1617 8.6675C22.3899 9.16511 22.5323 9.57972 22.6187 9.8765C22.6619 10.0249 22.6912 10.1439 22.7102 10.2293C22.7197 10.2719 22.7267 10.3062 22.7315 10.3315L22.7373 10.3627C22.8034 10.7716 22.5286 11.1741 22.1197 11.2403C21.712 11.3063 21.3279 11.0303 21.2601 10.6233C21.258 10.6124 21.2522 10.583 21.2461 10.5553C21.2337 10.4999 21.2124 10.4121 21.1786 10.296C21.1109 10.0636 20.9934 9.7183 20.7982 9.29262C20.4084 8.44232 19.7074 7.26813 18.4695 6.03027C17.2317 4.7924 16.0575 4.09141 15.2072 3.70158C14.7815 3.50642 14.4362 3.38889 14.2038 3.32122C14.0877 3.28739 13.9417 3.25387 13.8863 3.24154C13.4793 3.17372 13.1935 2.7878 13.2595 2.38008Z" fill="#B7BBBF"/>
<path fill-rule="evenodd" clip-rule="evenodd" d="M13.4861 5.82955C13.5999 5.43128 14.015 5.20066 14.4133 5.31445L14.2072 6.03559C14.4133 5.31445 14.4136 5.31455 14.414 5.31465L14.4147 5.31486L14.4162 5.31531L14.4196 5.31628L14.4273 5.31859L14.4471 5.32476C14.4622 5.32958 14.481 5.33586 14.5035 5.34383C14.5484 5.35976 14.6077 5.38243 14.6805 5.41363C14.8262 5.47607 15.0253 5.57249 15.2698 5.7172C15.7593 6.00688 16.4275 6.48806 17.2124 7.27303C17.9974 8.058 18.4786 8.72619 18.7683 9.21565C18.913 9.46016 19.0094 9.65923 19.0718 9.80491C19.103 9.87772 19.1257 9.93708 19.1416 9.98199C19.1496 10.0044 19.1559 10.0233 19.1607 10.0383L19.1669 10.0581L19.1692 10.0659L19.1702 10.0692L19.1706 10.0708L19.1708 10.0715C19.1709 10.0718 19.171 10.0722 18.4499 10.2782L19.171 10.0722C19.2848 10.4705 19.0542 10.8856 18.6559 10.9994C18.261 11.1122 17.8496 10.8864 17.7317 10.4944L17.728 10.4836C17.7227 10.4686 17.7116 10.439 17.6931 10.3958C17.6561 10.3095 17.589 10.1682 17.4774 9.97963C17.2544 9.60289 16.8517 9.03364 16.1518 8.33369C15.4518 7.63374 14.8826 7.23103 14.5058 7.00806C14.3172 6.89645 14.176 6.82935 14.0897 6.79235C14.0465 6.77383 14.0169 6.7628 14.0019 6.75747L13.9911 6.75377C13.599 6.63589 13.3733 6.22445 13.4861 5.82955Z" fill="#B7BBBF"/>
</svg>
