<svg width="40" height="41" viewBox="0 0 40 41" fill="none" xmlns="http://www.w3.org/2000/svg">
<rect y="0.5" width="40" height="40" rx="20" fill="white" fill-opacity="0.1"/>
<path d="M10.5 20.5C10.5 16.0217 10.5 13.7825 11.8912 12.3912C13.2825 11 15.5217 11 20 11C24.4783 11 26.7175 11 28.1088 12.3912C29.5 13.7825 29.5 16.0217 29.5 20.5C29.5 24.9783 29.5 27.2175 28.1088 28.6088C26.7175 30 24.4783 30 20 30C15.5217 30 13.2825 30 11.8912 28.6088C10.5 27.2175 10.5 24.9783 10.5 20.5Z" stroke="white" stroke-width="1.5" stroke-linejoin="round"/>
<path d="M18.5359 19.5085C17.7158 19.3926 15.8467 19.5844 14.9301 21.2792C14.0135 22.9739 14.9373 24.7378 15.5137 25.4079C16.083 26.0348 17.8923 27.222 19.8114 26.0629C20.2871 25.7756 20.8797 25.5613 21.552 23.3163L21.4738 14.4824C21.3441 15.4552 22.4186 17.7367 25.478 18.0067" stroke="white" stroke-width="1.5" stroke-linecap="round" stroke-linejoin="round"/>
</svg>
